<?xml version="1.0" encoding="UTF-8"?>
<svg xmlns="http://www.w3.org/2000/svg" xmlns:xlink="http://www.w3.org/1999/xlink" width="40px" height="50px" viewBox="0 0 40 49" version="1.1">
<g id="surface1">
<path style=" stroke:none;fill-rule:nonzero;fill:rgb(0%,0%,0%);fill-opacity:1;" d="M 15.445312 4.066406 C 15.484375 4.164062 15.578125 4.488281 15.710938 5.011719 C 15.894531 5.691406 15.929688 7.011719 15.804688 8.019531 C 15.640625 9.28125 15.15625 10.894531 14.503906 12.332031 C 14.425781 12.503906 14.28125 12.828125 14.175781 13.050781 C 14.078125 13.269531 13.410156 14.59375 12.699219 15.988281 C 11.640625 18.050781 10.945312 19.480469 10.339844 20.828125 C 10.199219 21.140625 9.949219 21.78125 9.632812 22.640625 C 8.871094 24.683594 8.339844 26.902344 8.148438 28.777344 C 8.136719 28.929688 8.097656 29.203125 8.066406 29.378906 C 7.96875 29.9375 7.925781 30.539062 7.925781 31.402344 C 7.933594 32.859375 8.140625 34.164062 8.628906 35.695312 C 9.078125 37.117188 9.730469 38.386719 10.789062 39.871094 C 11.246094 40.511719 12.5 41.792969 13.339844 42.460938 C 15.457031 44.148438 18.148438 45.242188 20.882812 45.519531 C 22.039062 45.640625 24.035156 45.578125 24.492188 45.410156 C 24.5625 45.382812 24.832031 45.339844 25.085938 45.324219 C 25.695312 45.265625 25.964844 45.207031 26.636719 44.976562 C 26.9375 44.875 27.378906 44.722656 27.597656 44.65625 C 27.828125 44.585938 28.039062 44.503906 28.066406 44.484375 C 28.101562 44.460938 28.546875 44.222656 29.058594 43.964844 C 29.574219 43.703125 30.085938 43.421875 30.199219 43.335938 C 30.308594 43.253906 30.480469 43.132812 30.585938 43.070312 C 31.105469 42.742188 31.777344 42.15625 31.707031 42.085938 C 31.695312 42.078125 31.453125 42.21875 31.164062 42.390625 C 28.605469 43.953125 25.671875 44.734375 22.75 44.636719 C 21.128906 44.585938 20.269531 44.425781 20.683594 44.257812 C 20.757812 44.230469 21.152344 44.066406 21.546875 43.90625 C 22.414062 43.554688 23.089844 43.222656 23.503906 42.949219 C 23.832031 42.738281 24.195312 42.617188 24.773438 42.523438 C 25.652344 42.378906 25.882812 42.328125 26.746094 42.078125 C 27.285156 41.929688 28.585938 41.394531 29.128906 41.113281 C 31.289062 39.972656 32.878906 38.484375 34.316406 36.261719 C 34.785156 35.535156 35.433594 34.164062 35.363281 34.042969 C 35.34375 34.011719 35.164062 34.308594 34.972656 34.699219 C 33.335938 37.925781 29.871094 40.621094 26.1875 41.539062 C 26.046875 41.574219 25.835938 41.625 25.71875 41.660156 C 25.304688 41.769531 22.933594 42 22.488281 41.976562 C 20.933594 41.890625 20.058594 41.648438 20.648438 41.46875 C 21.671875 41.164062 23.535156 40.351562 24.078125 39.976562 C 24.160156 39.917969 24.246094 39.871094 24.269531 39.871094 C 24.292969 39.871094 24.507812 39.730469 24.75 39.554688 C 24.996094 39.382812 25.234375 39.238281 25.285156 39.238281 C 25.460938 39.238281 26.484375 38.835938 27.265625 38.457031 C 28.230469 37.996094 28.859375 37.585938 29.714844 36.894531 C 30.316406 36.402344 31.449219 35.246094 31.617188 34.945312 C 31.660156 34.878906 31.851562 34.578125 32.054688 34.277344 C 32.484375 33.648438 32.921875 32.785156 33.207031 31.996094 C 33.550781 31.070312 33.457031 31.046875 32.984375 31.949219 C 31.546875 34.667969 30.246094 36.230469 28.445312 37.367188 C 27.921875 37.699219 27.03125 38.121094 26.699219 38.195312 C 26.464844 38.25 26.460938 38.242188 26.496094 38.128906 C 26.511719 38.058594 26.628906 37.898438 26.753906 37.769531 C 27.261719 37.234375 28.269531 35.902344 28.269531 35.769531 C 28.269531 35.679688 28.21875 35.734375 27.792969 36.253906 C 27.042969 37.1875 26.359375 37.867188 25.585938 38.457031 C 25.257812 38.703125 25.105469 38.773438 24.679688 38.882812 C 23.582031 39.160156 22.523438 39.261719 21.347656 39.214844 C 20.53125 39.179688 19.230469 39.019531 18.953125 38.917969 C 18.734375 38.832031 18.929688 38.703125 19.65625 38.460938 C 21.015625 38.011719 21.9375 37.609375 22.605469 37.171875 C 23.125 36.824219 23.539062 36.617188 24.035156 36.449219 C 24.515625 36.289062 25.578125 35.792969 26.050781 35.515625 C 27.515625 34.664062 29.140625 32.957031 29.976562 31.402344 C 30.445312 30.53125 31.015625 28.984375 31.015625 28.601562 C 31.011719 28.367188 30.953125 28.488281 30.695312 29.253906 C 30.421875 30.089844 29.800781 31.316406 29.242188 32.144531 C 27.769531 34.3125 25.609375 35.742188 22.78125 36.414062 C 21.617188 36.691406 19.519531 36.8125 18.632812 36.652344 C 18.457031 36.617188 18.140625 36.566406 17.933594 36.53125 C 17.148438 36.398438 15.976562 36.011719 15.226562 35.632812 C 13.0625 34.519531 11.40625 32.859375 10.273438 30.648438 C 9.371094 28.875 9.277344 27.390625 9.925781 25.085938 C 10.082031 24.527344 10.871094 22.355469 11.34375 21.175781 C 11.816406 19.988281 12.6875 18.074219 13.640625 16.105469 C 13.824219 15.722656 14.070312 15.207031 14.195312 14.953125 C 14.3125 14.699219 14.550781 14.203125 14.71875 13.859375 C 14.976562 13.320312 15.144531 12.957031 15.539062 12.070312 C 16.167969 10.652344 16.402344 9.933594 16.449219 9.257812 C 16.605469 7.042969 16.355469 5.347656 15.71875 4.269531 C 15.5625 4.003906 15.363281 3.855469 15.445312 4.066406 Z M 9.960938 31.546875 C 10.527344 32.945312 11.09375 34.011719 11.742188 34.90625 C 11.933594 35.171875 12.089844 35.40625 12.089844 35.441406 C 12.089844 35.472656 12.042969 35.492188 11.984375 35.492188 C 11.800781 35.492188 11.25 35.316406 11.140625 35.21875 C 10.636719 34.773438 9.578125 31.992188 9.578125 31.113281 C 9.578125 30.980469 9.554688 30.832031 9.527344 30.78125 C 9.496094 30.730469 9.460938 30.550781 9.4375 30.394531 C 9.410156 30.117188 9.410156 30.125 9.574219 30.566406 C 9.667969 30.820312 9.84375 31.257812 9.960938 31.546875 Z M 10.839844 32.105469 C 10.976562 32.273438 11.179688 32.554688 11.308594 32.726562 C 11.933594 33.597656 13.003906 34.566406 14.105469 35.273438 C 14.335938 35.417969 14.550781 35.574219 14.589844 35.625 C 14.660156 35.707031 14.644531 35.722656 14.457031 35.757812 C 14.335938 35.78125 13.953125 35.769531 13.605469 35.742188 C 12.851562 35.679688 12.855469 35.679688 12.171875 34.796875 C 11.4375 33.835938 10.574219 32.429688 10.574219 32.175781 C 10.574219 32.128906 10.550781 32.046875 10.515625 31.992188 C 10.375 31.738281 10.117188 31.070312 10.0625 30.828125 C 10.046875 30.746094 10.164062 30.9375 10.320312 31.242188 C 10.480469 31.546875 10.710938 31.933594 10.839844 32.105469 Z M 9.136719 31.355469 C 9.171875 31.714844 9.28125 32.078125 9.789062 33.59375 C 10.121094 34.570312 10.175781 34.800781 10.0625 34.800781 C 9.90625 34.800781 9.589844 34.640625 9.527344 34.527344 C 9.460938 34.410156 9.375 34.089844 9.289062 33.679688 C 9.265625 33.550781 9.210938 33.316406 9.175781 33.148438 C 9.140625 32.980469 9.089844 32.453125 9.054688 31.96875 C 9.019531 31.484375 8.976562 31.023438 8.960938 30.941406 C 8.929688 30.808594 8.9375 30.804688 9.011719 30.894531 C 9.058594 30.953125 9.113281 31.160156 9.136719 31.355469 Z M 10.226562 35.210938 C 10.390625 35.292969 10.507812 35.449219 10.824219 35.996094 C 11.039062 36.371094 11.402344 36.917969 11.625 37.214844 C 12.074219 37.808594 12.085938 37.925781 11.699219 37.808594 C 11.578125 37.769531 11.296875 37.644531 11.070312 37.523438 C 10.671875 37.316406 10.652344 37.296875 10.410156 36.820312 C 10.085938 36.183594 9.683594 35.152344 9.730469 35.085938 C 9.773438 35.019531 9.925781 35.0625 10.226562 35.210938 Z M 12.183594 35.902344 C 12.550781 35.988281 12.746094 36.0625 12.875 36.183594 C 13.113281 36.402344 13.753906 36.933594 13.949219 37.078125 C 14.035156 37.140625 14.28125 37.328125 14.496094 37.492188 C 14.714844 37.660156 14.902344 37.796875 14.914062 37.796875 C 14.949219 37.796875 15.496094 38.160156 15.6875 38.3125 L 15.835938 38.425781 L 15.5625 38.46875 C 15.410156 38.488281 14.976562 38.488281 14.601562 38.472656 C 13.761719 38.4375 13.570312 38.351562 13.007812 37.777344 C 12.425781 37.175781 11.566406 36.03125 11.566406 35.84375 C 11.566406 35.757812 11.589844 35.765625 12.183594 35.902344 Z M 16.414062 36.421875 C 17.890625 36.996094 19.117188 37.199219 20.765625 37.128906 C 21.234375 37.113281 21.613281 37.113281 21.613281 37.125 C 21.613281 37.140625 21.488281 37.234375 21.335938 37.328125 C 20.921875 37.585938 19.871094 37.996094 19.042969 38.21875 C 18.3125 38.414062 18.195312 38.445312 17.820312 38.472656 C 17.285156 38.519531 16.875 38.375 15.910156 37.820312 C 14.460938 36.984375 13.59375 36.351562 13.691406 36.191406 C 13.710938 36.164062 14.019531 36.140625 14.375 36.132812 C 14.730469 36.132812 15.039062 36.117188 15.058594 36.097656 C 15.15625 36 15.609375 36.109375 16.414062 36.421875 Z M 12.324219 38.433594 C 12.628906 38.523438 12.851562 38.664062 13.40625 39.101562 C 13.785156 39.402344 14.183594 39.722656 14.28125 39.816406 C 14.480469 40.003906 14.835938 40.257812 15.480469 40.679688 C 16.035156 41.035156 16.25 41.203125 16.214844 41.238281 C 16.117188 41.335938 14.671875 41.246094 14.113281 41.105469 C 13.480469 40.945312 13.210938 40.75 12.4375 39.867188 C 11.996094 39.378906 11.320312 38.386719 11.367188 38.304688 C 11.417969 38.226562 11.851562 38.28125 12.324219 38.433594 Z M 17.84375 39.152344 C 19.925781 39.761719 20.074219 39.785156 21.777344 39.78125 C 22.582031 39.78125 23.246094 39.785156 23.246094 39.796875 C 23.246094 39.804688 23.136719 39.871094 23.003906 39.953125 C 22.5625 40.207031 21.003906 40.753906 19.964844 41.027344 C 19.84375 41.058594 19.632812 41.113281 19.503906 41.152344 C 18.941406 41.3125 18.351562 41.214844 17.347656 40.785156 C 16.222656 40.304688 14.492188 39.214844 14.632812 39.070312 C 14.683594 39.027344 15.503906 38.972656 16.414062 38.960938 C 17.097656 38.949219 17.191406 38.960938 17.84375 39.152344 Z M 18.789062 42.113281 C 19.601562 42.386719 20.859375 42.570312 22.539062 42.667969 C 23.347656 42.714844 23.375 42.757812 22.78125 43.03125 C 22.160156 43.3125 21.191406 43.628906 20.0625 43.914062 C 19.613281 44.027344 18.953125 44.011719 18.546875 43.867188 C 17.511719 43.507812 15.664062 42.582031 15.375 42.277344 L 15.238281 42.136719 L 16.222656 42.089844 C 16.757812 42.066406 17.359375 42.035156 17.550781 42.003906 C 18.148438 41.929688 18.257812 41.941406 18.789062 42.113281 Z M 18.789062 42.113281 "/>
</g>
</svg>
