<?xml version="1.0" encoding="UTF-8"?>
<svg xmlns="http://www.w3.org/2000/svg" xmlns:xlink="http://www.w3.org/1999/xlink" width="480px" height="596px" viewBox="0 0 480 596" version="1.1">
<g id="surface1">
<path style=" stroke:none;fill-rule:nonzero;fill:rgb(0%,0%,0%);fill-opacity:1;" d="M 185.328125 49.480469 C 185.816406 50.671875 186.9375 54.597656 188.550781 60.972656 C 190.722656 69.242188 191.144531 85.292969 189.671875 97.558594 C 187.710938 112.90625 181.890625 132.53125 174.042969 149.980469 C 173.128906 152.082031 171.378906 156.007812 170.117188 158.742188 C 168.925781 161.40625 160.933594 177.523438 152.382812 194.484375 C 139.695312 219.574219 131.355469 236.957031 124.066406 253.355469 C 122.382812 257.140625 119.371094 264.921875 115.585938 275.363281 C 106.472656 300.242188 100.09375 327.226562 97.78125 350.003906 C 97.640625 351.894531 97.148438 355.1875 96.800781 357.363281 C 95.609375 364.160156 95.117188 371.449219 95.117188 381.960938 C 95.1875 399.691406 97.710938 415.53125 103.527344 434.175781 C 108.925781 451.484375 116.777344 466.902344 129.460938 484.984375 C 134.929688 492.765625 150 508.324219 160.09375 516.453125 C 185.46875 536.988281 217.78125 550.304688 250.585938 553.667969 C 264.460938 555.140625 288.433594 554.371094 293.902344 552.335938 C 294.742188 551.988281 297.96875 551.496094 301.050781 551.285156 C 308.339844 550.585938 311.566406 549.882812 319.625 547.082031 C 323.269531 545.820312 328.527344 543.996094 331.191406 543.15625 C 333.925781 542.316406 336.449219 541.332031 336.800781 541.054688 C 337.21875 540.773438 342.546875 537.898438 348.714844 534.746094 C 354.882812 531.59375 361.050781 528.15625 362.382812 527.105469 C 363.714844 526.125 365.746094 524.652344 367.007812 523.882812 C 373.246094 519.886719 381.308594 512.738281 380.46875 511.898438 C 380.328125 511.828125 377.453125 513.511719 373.949219 515.613281 C 343.246094 534.605469 308.0625 544.136719 273.015625 542.945312 C 253.527344 542.316406 243.222656 540.351562 248.199219 538.320312 C 249.113281 537.96875 253.808594 536.007812 258.574219 534.046875 C 268.949219 529.769531 277.078125 525.707031 282.054688 522.410156 C 285.980469 519.816406 290.328125 518.347656 297.265625 517.226562 C 307.851562 515.472656 310.585938 514.84375 320.957031 511.828125 C 327.40625 510.007812 343.039062 503.488281 349.554688 500.054688 C 375.492188 486.175781 394.554688 468.09375 411.800781 441.042969 C 417.40625 432.210938 425.1875 415.53125 424.347656 414.058594 C 424.136719 413.710938 421.960938 417.285156 419.648438 422.050781 C 400.023438 461.296875 358.457031 494.097656 314.230469 505.242188 C 312.546875 505.660156 310.023438 506.292969 308.621094 506.710938 C 303.644531 508.042969 275.1875 510.847656 269.859375 510.566406 C 251.214844 509.515625 240.699219 506.570312 247.78125 504.398438 C 260.046875 500.683594 282.40625 490.804688 288.925781 486.246094 C 289.90625 485.546875 290.957031 484.984375 291.238281 484.984375 C 291.519531 484.984375 294.113281 483.234375 296.984375 481.132812 C 299.929688 479.027344 302.804688 477.277344 303.433594 477.277344 C 305.539062 477.277344 317.804688 472.371094 327.195312 467.746094 C 338.761719 462.136719 346.332031 457.164062 356.566406 448.753906 C 363.785156 442.792969 377.382812 428.707031 379.414062 425.0625 C 379.90625 424.222656 382.21875 420.578125 384.671875 416.933594 C 389.789062 409.292969 395.046875 398.78125 398.480469 389.179688 C 402.617188 377.898438 401.496094 377.617188 395.816406 388.621094 C 378.574219 421.699219 362.945312 440.691406 341.355469 454.5 C 335.046875 458.5625 324.390625 463.679688 320.398438 464.589844 C 317.59375 465.222656 317.523438 465.152344 317.945312 463.75 C 318.152344 462.910156 319.554688 460.945312 321.027344 459.40625 C 327.125 452.886719 339.253906 436.699219 339.253906 435.085938 C 339.253906 433.964844 338.621094 434.664062 333.503906 440.972656 C 324.53125 452.328125 316.332031 460.597656 307.007812 467.746094 C 303.085938 470.757812 301.261719 471.601562 296.144531 472.929688 C 282.96875 476.296875 270.28125 477.558594 256.191406 476.996094 C 246.378906 476.574219 230.746094 474.613281 227.453125 473.351562 C 224.789062 472.300781 227.171875 470.757812 235.863281 467.816406 C 252.195312 462.347656 263.269531 457.441406 271.261719 452.117188 C 277.5 447.910156 282.476562 445.386719 288.433594 443.355469 C 294.183594 441.394531 306.9375 435.367188 312.617188 432 C 330.210938 421.628906 349.695312 400.882812 359.71875 381.960938 C 365.328125 371.378906 372.195312 352.527344 372.195312 347.898438 C 372.125 345.027344 371.425781 346.5 368.339844 355.820312 C 365.046875 365.980469 357.617188 380.910156 350.886719 391.003906 C 333.222656 417.355469 307.289062 434.734375 273.363281 442.933594 C 259.414062 446.300781 234.253906 447.769531 223.597656 445.808594 C 221.496094 445.386719 217.710938 444.757812 215.1875 444.335938 C 205.792969 442.726562 191.707031 438.027344 182.734375 433.402344 C 156.730469 419.878906 136.890625 399.691406 123.292969 372.78125 C 112.429688 351.195312 111.308594 333.183594 119.089844 305.148438 C 120.980469 298.351562 130.445312 271.929688 136.121094 257.5625 C 141.800781 243.125 152.242188 219.855469 163.667969 195.886719 C 165.910156 191.261719 168.855469 184.953125 170.328125 181.871094 C 171.730469 178.785156 174.601562 172.757812 176.636719 168.554688 C 179.71875 162.035156 181.753906 157.621094 186.449219 146.828125 C 194.019531 129.585938 196.824219 120.824219 197.382812 112.625 C 199.277344 85.644531 196.261719 65.039062 188.621094 51.933594 C 186.730469 48.707031 184.347656 46.886719 185.328125 49.480469 Z M 119.507812 383.714844 C 126.308594 400.742188 133.109375 413.710938 140.886719 424.574219 C 143.199219 427.796875 145.09375 430.671875 145.09375 431.089844 C 145.09375 431.441406 144.53125 431.722656 143.832031 431.722656 C 141.589844 431.722656 135 429.550781 133.667969 428.359375 C 127.640625 422.960938 114.953125 389.109375 114.953125 378.457031 C 114.953125 376.84375 114.671875 375.023438 114.324219 374.390625 C 113.972656 373.761719 113.550781 371.589844 113.269531 369.695312 C 112.921875 366.332031 112.921875 366.402344 114.882812 371.800781 C 116.003906 374.882812 118.109375 380.210938 119.507812 383.714844 Z M 130.09375 390.511719 C 131.707031 392.542969 134.160156 395.976562 135.699219 398.082031 C 143.199219 408.664062 156.027344 420.4375 169.277344 429.058594 C 172.007812 430.808594 174.601562 432.703125 175.09375 433.332031 C 175.933594 434.316406 175.722656 434.523438 173.480469 434.945312 C 172.007812 435.226562 167.453125 435.085938 163.246094 434.734375 C 154.207031 433.964844 154.277344 433.964844 146.074219 423.242188 C 137.242188 411.539062 126.871094 394.4375 126.871094 391.351562 C 126.871094 390.792969 126.589844 389.8125 126.167969 389.109375 C 124.484375 386.027344 121.402344 377.898438 120.769531 374.953125 C 120.5625 373.972656 121.960938 376.285156 123.855469 380 C 125.746094 383.714844 128.550781 388.410156 130.09375 390.511719 Z M 109.625 381.402344 C 110.046875 385.746094 111.378906 390.160156 117.476562 408.59375 C 121.472656 420.507812 122.101562 423.3125 120.769531 423.3125 C 118.878906 423.3125 115.09375 421.347656 114.324219 419.949219 C 113.550781 418.546875 112.5 414.621094 111.449219 409.644531 C 111.167969 408.101562 110.539062 405.230469 110.117188 403.195312 C 109.695312 401.164062 109.066406 394.71875 108.644531 388.828125 C 108.222656 382.941406 107.734375 377.335938 107.523438 376.355469 C 107.171875 374.742188 107.242188 374.671875 108.152344 375.792969 C 108.714844 376.496094 109.347656 379.019531 109.625 381.402344 Z M 122.734375 428.289062 C 124.695312 429.269531 126.097656 431.160156 129.882812 437.820312 C 132.476562 442.375 136.824219 449.03125 139.484375 452.675781 C 144.882812 459.894531 145.023438 461.296875 140.398438 459.894531 C 138.925781 459.40625 135.5625 457.863281 132.828125 456.390625 C 128.0625 453.867188 127.851562 453.65625 124.90625 447.839844 C 121.050781 440.132812 116.214844 427.585938 116.777344 426.746094 C 117.265625 425.972656 119.089844 426.464844 122.734375 428.289062 Z M 146.214844 436.699219 C 150.628906 437.75 152.945312 438.660156 154.484375 440.132812 C 157.359375 442.792969 165.070312 449.242188 167.382812 450.996094 C 168.433594 451.765625 171.378906 454.007812 173.972656 456.039062 C 176.566406 458.074219 178.808594 459.753906 178.949219 459.753906 C 179.371094 459.753906 185.957031 464.171875 188.269531 465.992188 L 190.023438 467.394531 L 186.730469 467.886719 C 184.90625 468.164062 179.71875 468.164062 175.234375 467.957031 C 165.140625 467.535156 162.828125 466.484375 156.097656 459.476562 C 149.089844 452.1875 138.785156 438.238281 138.785156 435.996094 C 138.785156 434.945312 139.066406 435.015625 146.214844 436.699219 Z M 196.960938 443.003906 C 214.695312 450.011719 229.414062 452.464844 249.183594 451.625 C 254.789062 451.414062 259.347656 451.414062 259.347656 451.554688 C 259.347656 451.765625 257.875 452.886719 256.050781 454.007812 C 251.074219 457.164062 238.457031 462.136719 228.503906 464.871094 C 219.742188 467.253906 218.339844 467.605469 213.855469 467.957031 C 207.40625 468.515625 202.5 466.765625 190.933594 460.035156 C 173.550781 449.875 163.109375 442.164062 164.300781 440.203125 C 164.507812 439.851562 168.222656 439.570312 172.5 439.5 C 176.777344 439.5 180.492188 439.289062 180.699219 439.082031 C 181.890625 437.890625 187.289062 439.21875 196.960938 443.003906 Z M 147.898438 467.464844 C 151.542969 468.585938 154.207031 470.269531 160.863281 475.59375 C 165.421875 479.238281 170.1875 483.164062 171.378906 484.285156 C 173.761719 486.597656 178.039062 489.679688 185.746094 494.796875 C 192.40625 499.144531 195 501.175781 194.578125 501.597656 C 193.386719 502.789062 176.074219 501.667969 169.347656 499.984375 C 161.777344 498.023438 158.550781 495.640625 149.230469 484.914062 C 143.972656 478.957031 135.839844 466.902344 136.402344 465.921875 C 137.03125 464.941406 142.21875 465.640625 147.898438 467.464844 Z M 214.136719 476.226562 C 239.089844 483.652344 240.910156 483.933594 261.308594 483.863281 C 270.980469 483.863281 278.972656 483.933594 278.972656 484.074219 C 278.972656 484.144531 277.640625 484.984375 276.027344 485.96875 C 270.769531 489.050781 252.054688 495.707031 239.578125 499.003906 C 238.109375 499.421875 235.585938 500.054688 234.042969 500.542969 C 227.3125 502.507812 220.234375 501.316406 208.175781 496.058594 C 194.648438 490.242188 173.902344 476.996094 175.585938 475.242188 C 176.214844 474.683594 186.027344 474.050781 196.960938 473.914062 C 205.164062 473.773438 206.285156 473.914062 214.136719 476.226562 Z M 225.492188 512.25 C 235.234375 515.542969 250.304688 517.785156 270.492188 518.976562 C 280.164062 519.539062 280.515625 520.097656 273.363281 523.390625 C 265.933594 526.828125 254.300781 530.679688 240.769531 534.117188 C 235.375 535.515625 227.453125 535.308594 222.546875 533.554688 C 210.140625 529.210938 187.992188 517.925781 184.484375 514.210938 L 182.875 512.527344 L 194.648438 511.96875 C 201.097656 511.6875 208.316406 511.269531 210.628906 510.917969 C 217.78125 510.007812 219.113281 510.144531 225.492188 512.25 Z M 225.492188 512.25 "/>
</g>
</svg>
