<?xml version="1.0" encoding="UTF-8"?>
<svg xmlns="http://www.w3.org/2000/svg" xmlns:xlink="http://www.w3.org/1999/xlink" width="200pt" height="248pt" viewBox="0 0 200 248" version="1.1">
<g id="surface1">
<path style=" stroke:none;fill-rule:nonzero;fill:rgb(0%,0%,0%);fill-opacity:1;" d="M 77.21875 20.589844 C 77.425781 21.085938 77.890625 22.71875 78.5625 25.371094 C 79.46875 28.8125 79.644531 35.492188 79.03125 40.59375 C 78.210938 46.980469 75.789062 55.148438 72.515625 62.410156 C 72.136719 63.28125 71.40625 64.917969 70.882812 66.054688 C 70.386719 67.160156 67.054688 73.871094 63.492188 80.925781 C 58.207031 91.367188 54.730469 98.597656 51.695312 105.421875 C 50.992188 107 49.738281 110.234375 48.160156 114.582031 C 44.363281 124.933594 41.707031 136.160156 40.742188 145.640625 C 40.683594 146.425781 40.480469 147.796875 40.332031 148.699219 C 39.835938 151.53125 39.632812 154.5625 39.632812 158.9375 C 39.660156 166.316406 40.710938 172.90625 43.136719 180.664062 C 45.386719 187.867188 48.65625 194.28125 53.941406 201.804688 C 56.222656 205.042969 62.5 211.515625 66.707031 214.898438 C 77.277344 223.445312 90.742188 228.984375 104.410156 230.386719 C 110.191406 231 120.179688 230.675781 122.460938 229.832031 C 122.808594 229.6875 124.152344 229.480469 125.4375 229.394531 C 128.476562 229.101562 129.820312 228.8125 133.175781 227.644531 C 134.695312 227.121094 136.886719 226.359375 137.996094 226.011719 C 139.136719 225.660156 140.1875 225.253906 140.332031 225.136719 C 140.507812 225.019531 142.726562 223.824219 145.296875 222.511719 C 147.867188 221.199219 150.4375 219.769531 150.992188 219.332031 C 151.546875 218.925781 152.394531 218.3125 152.921875 217.992188 C 155.519531 216.328125 158.878906 213.355469 158.527344 213.003906 C 158.46875 212.976562 157.273438 213.675781 155.8125 214.550781 C 143.019531 222.453125 128.359375 226.417969 113.753906 225.921875 C 105.636719 225.660156 101.34375 224.84375 103.417969 224 C 103.796875 223.851562 105.753906 223.035156 107.738281 222.21875 C 112.0625 220.441406 115.449219 218.75 117.523438 217.378906 C 119.160156 216.300781 120.96875 215.6875 123.859375 215.222656 C 128.269531 214.492188 129.410156 214.230469 133.734375 212.976562 C 136.417969 212.21875 142.933594 209.503906 145.648438 208.078125 C 156.453125 202.300781 164.398438 194.777344 171.582031 183.519531 C 173.917969 179.847656 177.160156 172.90625 176.8125 172.292969 C 176.722656 172.148438 175.816406 173.636719 174.855469 175.617188 C 166.675781 191.949219 149.359375 205.597656 130.929688 210.234375 C 130.226562 210.410156 129.175781 210.671875 128.59375 210.847656 C 126.519531 211.402344 114.660156 212.566406 112.441406 212.449219 C 104.671875 212.011719 100.292969 210.789062 103.242188 209.882812 C 108.351562 208.339844 117.667969 204.226562 120.386719 202.332031 C 120.792969 202.039062 121.234375 201.804688 121.347656 201.804688 C 121.464844 201.804688 122.546875 201.078125 123.746094 200.203125 C 124.972656 199.328125 126.167969 198.597656 126.429688 198.597656 C 127.308594 198.597656 132.417969 196.558594 136.332031 194.632812 C 141.152344 192.300781 144.304688 190.230469 148.570312 186.730469 C 151.578125 184.25 157.242188 178.386719 158.089844 176.871094 C 158.292969 176.523438 159.257812 175.003906 160.28125 173.488281 C 162.414062 170.308594 164.601562 165.9375 166.035156 161.941406 C 167.757812 157.246094 167.289062 157.128906 164.925781 161.707031 C 157.738281 175.472656 151.226562 183.375 142.230469 189.121094 C 139.601562 190.8125 135.164062 192.941406 133.5 193.320312 C 132.332031 193.582031 132.300781 193.554688 132.476562 192.96875 C 132.5625 192.621094 133.148438 191.804688 133.761719 191.160156 C 136.300781 188.449219 141.355469 181.714844 141.355469 181.042969 C 141.355469 180.574219 141.09375 180.867188 138.960938 183.492188 C 135.222656 188.214844 131.804688 191.65625 127.921875 194.632812 C 126.285156 195.886719 125.527344 196.234375 123.394531 196.789062 C 117.902344 198.191406 112.617188 198.714844 106.746094 198.480469 C 102.65625 198.308594 96.144531 197.488281 94.773438 196.964844 C 93.664062 196.527344 94.65625 195.886719 98.277344 194.660156 C 105.082031 192.386719 109.695312 190.34375 113.027344 188.128906 C 115.625 186.378906 117.699219 185.328125 120.179688 184.484375 C 122.574219 183.667969 127.890625 181.160156 130.257812 179.757812 C 137.585938 175.441406 145.707031 166.8125 149.882812 158.9375 C 152.21875 154.535156 155.082031 146.6875 155.082031 144.765625 C 155.050781 143.566406 154.761719 144.179688 153.476562 148.058594 C 152.101562 152.289062 149.007812 158.5 146.203125 162.699219 C 138.84375 173.664062 128.039062 180.898438 113.902344 184.308594 C 108.089844 185.707031 97.605469 186.320312 93.164062 185.503906 C 92.289062 185.328125 90.710938 185.066406 89.660156 184.890625 C 85.746094 184.222656 79.878906 182.265625 76.140625 180.34375 C 65.304688 174.714844 57.039062 166.316406 51.371094 155.117188 C 46.847656 146.132812 46.378906 138.640625 49.621094 126.972656 C 50.410156 124.144531 54.351562 113.152344 56.71875 107.171875 C 59.082031 101.164062 63.433594 91.484375 68.195312 81.511719 C 69.128906 79.585938 70.355469 76.960938 70.96875 75.675781 C 71.554688 74.394531 72.75 71.886719 73.597656 70.136719 C 74.882812 67.425781 75.730469 65.585938 77.6875 61.097656 C 80.839844 53.921875 82.007812 50.277344 82.242188 46.863281 C 83.03125 35.636719 81.777344 27.0625 78.59375 21.609375 C 77.804688 20.269531 76.8125 19.511719 77.21875 20.589844 Z M 49.796875 159.667969 C 52.628906 166.753906 55.460938 172.148438 58.703125 176.667969 C 59.667969 178.007812 60.457031 179.207031 60.457031 179.378906 C 60.457031 179.527344 60.222656 179.640625 59.929688 179.640625 C 58.996094 179.640625 56.25 178.738281 55.695312 178.242188 C 53.183594 175.996094 47.898438 161.910156 47.898438 157.480469 C 47.898438 156.808594 47.78125 156.050781 47.632812 155.789062 C 47.488281 155.523438 47.3125 154.621094 47.195312 153.832031 C 47.050781 152.433594 47.050781 152.460938 47.867188 154.707031 C 48.335938 155.992188 49.210938 158.207031 49.796875 159.667969 Z M 54.207031 162.496094 C 54.878906 163.339844 55.898438 164.769531 56.542969 165.644531 C 59.667969 170.046875 65.011719 174.949219 70.53125 178.535156 C 71.671875 179.261719 72.75 180.050781 72.957031 180.3125 C 73.304688 180.722656 73.21875 180.808594 72.285156 180.984375 C 71.671875 181.101562 69.773438 181.042969 68.019531 180.898438 C 64.253906 180.574219 64.28125 180.574219 60.863281 176.113281 C 57.183594 171.242188 52.863281 164.128906 52.863281 162.84375 C 52.863281 162.613281 52.746094 162.203125 52.570312 161.910156 C 51.871094 160.628906 50.585938 157.246094 50.320312 156.019531 C 50.234375 155.613281 50.816406 156.574219 51.605469 158.121094 C 52.394531 159.667969 53.5625 161.621094 54.207031 162.496094 Z M 45.675781 158.703125 C 45.851562 160.511719 46.40625 162.347656 48.949219 170.019531 C 50.613281 174.976562 50.875 176.144531 50.320312 176.144531 C 49.53125 176.144531 47.957031 175.328125 47.632812 174.742188 C 47.3125 174.160156 46.875 172.527344 46.4375 170.457031 C 46.320312 169.816406 46.058594 168.617188 45.882812 167.773438 C 45.707031 166.925781 45.445312 164.246094 45.269531 161.792969 C 45.09375 159.34375 44.890625 157.011719 44.800781 156.605469 C 44.65625 155.933594 44.683594 155.902344 45.0625 156.371094 C 45.296875 156.664062 45.5625 157.710938 45.675781 158.703125 Z M 51.140625 178.214844 C 51.957031 178.621094 52.539062 179.410156 54.117188 182.179688 C 55.199219 184.074219 57.007812 186.847656 58.121094 188.363281 C 60.367188 191.367188 60.425781 191.949219 58.5 191.367188 C 57.886719 191.160156 56.484375 190.519531 55.34375 189.90625 C 53.359375 188.859375 53.269531 188.769531 52.042969 186.351562 C 50.4375 183.140625 48.421875 177.921875 48.65625 177.570312 C 48.859375 177.25 49.621094 177.457031 51.140625 178.214844 Z M 60.921875 181.714844 C 62.761719 182.152344 63.726562 182.53125 64.371094 183.140625 C 65.566406 184.25 68.777344 186.933594 69.742188 187.664062 C 70.179688 187.984375 71.40625 188.917969 72.488281 189.761719 C 73.570312 190.609375 74.503906 191.308594 74.5625 191.308594 C 74.738281 191.308594 77.484375 193.144531 78.445312 193.902344 L 79.175781 194.488281 L 77.804688 194.691406 C 77.042969 194.808594 74.882812 194.808594 73.015625 194.71875 C 68.808594 194.542969 67.84375 194.105469 65.039062 191.191406 C 62.121094 188.15625 57.828125 182.355469 57.828125 181.421875 C 57.828125 180.984375 57.945312 181.011719 60.921875 181.714844 Z M 82.066406 184.335938 C 89.457031 187.253906 95.589844 188.273438 103.824219 187.925781 C 106.164062 187.835938 108.0625 187.835938 108.0625 187.894531 C 108.0625 187.984375 107.449219 188.449219 106.6875 188.917969 C 104.613281 190.230469 99.359375 192.300781 95.210938 193.4375 C 91.558594 194.429688 90.976562 194.574219 89.105469 194.71875 C 86.417969 194.953125 84.375 194.222656 79.554688 191.425781 C 72.3125 187.195312 67.960938 183.988281 68.457031 183.171875 C 68.546875 183.027344 70.09375 182.910156 71.875 182.878906 C 73.65625 182.878906 75.203125 182.792969 75.292969 182.703125 C 75.789062 182.207031 78.039062 182.761719 82.066406 184.335938 Z M 61.625 194.515625 C 63.140625 194.980469 64.253906 195.683594 67.027344 197.898438 C 68.925781 199.414062 70.910156 201.046875 71.40625 201.515625 C 72.402344 202.476562 74.183594 203.761719 77.394531 205.890625 C 80.167969 207.695312 81.25 208.542969 81.074219 208.71875 C 80.578125 209.214844 73.363281 208.746094 70.5625 208.046875 C 67.40625 207.230469 66.0625 206.238281 62.179688 201.777344 C 59.988281 199.296875 56.601562 194.28125 56.835938 193.875 C 57.097656 193.464844 59.257812 193.757812 61.625 194.515625 Z M 89.222656 198.160156 C 99.621094 201.253906 100.378906 201.367188 108.878906 201.339844 C 112.910156 201.339844 116.238281 201.367188 116.238281 201.425781 C 116.238281 201.457031 115.683594 201.804688 115.011719 202.214844 C 112.820312 203.496094 105.023438 206.269531 99.824219 207.640625 C 99.210938 207.8125 98.160156 208.078125 97.515625 208.28125 C 94.714844 209.097656 91.765625 208.601562 86.742188 206.414062 C 81.105469 203.992188 72.460938 198.480469 73.160156 197.753906 C 73.421875 197.519531 77.511719 197.257812 82.066406 197.199219 C 85.484375 197.140625 85.953125 197.199219 89.222656 198.160156 Z M 93.953125 213.152344 C 98.015625 214.519531 104.292969 215.453125 112.703125 215.949219 C 116.734375 216.183594 116.878906 216.417969 113.902344 217.789062 C 110.804688 219.214844 105.957031 220.820312 100.320312 222.25 C 98.074219 222.832031 94.773438 222.746094 92.726562 222.015625 C 87.558594 220.207031 78.328125 215.511719 76.871094 213.96875 L 76.199219 213.265625 L 81.105469 213.035156 C 83.789062 212.917969 86.800781 212.742188 87.761719 212.597656 C 90.742188 212.21875 91.296875 212.277344 93.953125 213.152344 Z M 93.953125 213.152344 "/>
</g>
</svg>
