<svg id="svg" xmlns="http://www.w3.org/2000/svg" xmlns:xlink="http://www.w3.org/1999/xlink" width="400" height="372.8125" viewBox="0, 0, 400,372.8125"><g id="svgg"><path id="path0" d="M183.019 33.669 C 182.908 33.848,183.027 35.381,183.282 37.075 C 185.668 52.908,180.619 66.589,162.191 94.219 C 141.782 124.819,134.022 141.754,129.113 166.406 C 121.238 205.955,147.850 245.772,187.478 253.731 C 200.101 256.267,216.682 255.410,225.781 251.753 C 226.813 251.339,229.344 250.341,231.406 249.535 C 235.187 248.058,239.321 245.900,242.513 243.738 C 246.297 241.175,245.600 240.708,241.117 242.802 C 224.890 250.379,206.647 252.307,189.611 248.247 C 185.966 247.378,185.378 247.040,186.950 246.716 C 191.085 245.865,198.655 243.322,201.928 241.685 C 203.825 240.736,204.403 240.613,208.335 240.315 C 228.154 238.817,242.527 232.571,255.011 220.028 C 261.839 213.168,268.686 203.430,267.963 201.607 C 267.720 200.997,267.754 200.956,265.040 205.156 C 254.783 221.030,236.143 232.543,215.938 235.485 C 212.422 235.997,200.492 236.082,197.500 235.617 C 194.081 235.085,189.618 234.011,188.131 233.363 L 186.719 232.748 191.406 231.577 C 199.895 229.456,206.542 227.037,210.392 224.668 C 211.236 224.149,212.653 223.587,213.541 223.419 C 232.665 219.805,249.542 207.426,257.811 190.946 C 260.756 185.076,260.534 183.549,257.428 188.325 C 246.407 205.277,234.997 214.841,221.875 218.123 C 221.102 218.316,220.188 218.556,219.844 218.655 C 219.500 218.754,221.147 216.980,223.503 214.712 C 228.083 210.304,231.110 206.782,230.778 206.245 C 230.663 206.059,228.710 207.717,226.276 210.067 C 219.837 216.286,214.413 219.992,210.732 220.688 C 203.534 222.050,187.579 220.489,181.463 217.825 C 179.918 217.152,179.838 217.191,185.000 216.094 C 192.026 214.602,195.415 213.503,201.043 210.892 C 203.686 209.665,206.459 208.669,209.168 207.972 C 225.661 203.730,238.738 193.037,246.245 177.656 C 248.597 172.838,249.327 170.765,248.844 170.282 C 248.573 170.011,247.944 171.028,246.288 174.414 C 236.804 193.810,221.927 204.466,200.948 206.891 C 172.793 210.145,146.763 192.342,139.821 165.084 C 136.428 151.762,142.648 135.672,165.478 98.722 C 183.227 69.995,184.491 67.585,185.831 59.943 C 187.010 53.216,187.074 44.098,185.972 39.871 C 184.919 35.830,183.511 32.873,183.019 33.669 M138.726 174.686 C 140.566 181.808,143.868 190.040,146.729 194.642 L 147.575 196.003 146.834 195.784 C 143.848 194.900,142.800 194.122,141.896 192.120 C 139.381 186.556,137.512 177.809,137.067 169.531 L 136.899 166.406 137.348 168.749 C 137.595 170.037,138.215 172.709,138.726 174.686 M134.790 173.906 C 135.006 177.553,135.875 182.722,137.135 187.873 L 138.029 191.526 136.884 190.942 C 134.637 189.796,134.364 188.458,134.174 177.656 C 134.037 169.856,134.413 167.566,134.790 173.906 M143.519 178.921 C 146.653 185.144,151.491 191.079,157.328 195.861 C 161.183 199.020,161.093 198.856,158.842 198.616 C 156.876 198.407,152.959 197.656,152.089 197.323 C 149.999 196.521,143.127 182.959,140.908 175.260 C 139.524 170.455,139.510 169.471,140.875 172.969 C 141.546 174.688,142.735 177.366,143.519 178.921 M139.115 194.990 C 140.087 197.567,142.521 202.627,143.964 205.069 C 144.885 206.628,145.570 207.972,145.485 208.056 C 145.263 208.278,142.268 206.705,140.602 205.491 C 138.939 204.278,137.397 200.376,135.801 193.333 L 135.600 192.447 137.208 193.323 C 138.170 193.846,138.937 194.517,139.115 194.990 M147.813 198.606 C 149.985 199.389,150.349 199.659,152.799 202.304 C 156.116 205.885,160.846 210.316,163.238 212.084 L 165.069 213.438 163.706 213.436 C 158.660 213.429,154.295 212.104,152.409 210.007 C 149.204 206.442,143.640 197.028,145.078 197.604 C 145.293 197.690,146.523 198.141,147.813 198.606 M160.625 201.129 L 164.531 201.338 169.219 203.778 C 176.808 207.729,182.980 209.414,191.719 209.921 L 195.781 210.156 193.906 210.843 C 184.590 214.254,174.505 215.506,171.045 213.681 C 167.674 211.903,157.920 204.223,155.860 201.724 L 154.875 200.528 155.797 200.724 C 156.304 200.832,158.477 201.014,160.625 201.129 M144.732 210.899 C 147.879 211.982,148.916 212.741,152.968 216.927 C 157.816 221.936,161.377 225.247,163.906 227.099 L 165.781 228.472 164.063 228.268 C 152.826 226.934,149.611 224.628,143.787 213.724 C 141.692 209.802,141.677 209.848,144.732 210.899 M168.000 216.899 C 170.858 217.171,171.640 217.401,176.281 219.341 C 185.548 223.214,189.658 224.195,198.281 224.592 C 203.506 224.833,203.381 224.946,195.740 226.895 C 183.314 230.065,179.076 230.266,174.330 227.910 C 168.943 225.235,162.359 220.565,159.219 217.191 L 158.281 216.184 161.563 216.391 C 163.367 216.506,166.264 216.734,168.000 216.899 M165.413 233.138 C 167.334 233.297,170.328 233.430,172.066 233.432 C 175.095 233.437,175.337 233.489,177.892 234.687 C 181.790 236.514,190.990 238.884,197.969 239.859 C 200.681 240.238,200.526 240.482,196.902 241.541 C 191.419 243.143,185.665 244.132,181.563 244.178 L 177.969 244.219 174.844 242.626 C 169.994 240.154,159.688 233.336,159.688 232.600 C 159.688 232.507,160.190 232.525,160.804 232.640 C 161.418 232.755,163.492 232.979,165.413 233.138 M138.710 279.675 C 126.489 281.892,124.815 302.071,136.499 306.315 C 139.702 307.479,144.259 306.883,146.617 304.992 L 147.765 304.071 147.965 304.983 C 148.260 306.324,148.793 306.606,150.833 306.501 L 152.656 306.406 152.656 298.906 L 152.656 291.406 147.072 291.321 C 140.285 291.217,140.572 291.067,140.692 294.657 L 140.781 297.344 142.870 297.436 L 144.958 297.528 144.651 298.406 C 143.745 301.007,139.410 300.645,138.197 297.866 C 137.403 296.048,137.499 289.981,138.352 288.074 C 139.725 285.004,143.123 285.124,144.200 288.281 C 144.701 289.751,145.262 289.873,149.654 289.463 C 152.904 289.160,153.105 288.924,152.191 286.485 C 150.305 281.451,144.655 278.597,138.710 279.675 M165.516 279.684 C 157.255 281.172,152.813 291.737,156.891 300.195 C 160.943 308.600,173.584 309.253,178.662 301.320 C 185.316 290.925,177.206 277.578,165.516 279.684 M57.631 280.094 C 57.264 280.301,57.188 281.904,57.188 289.411 C 57.188 300.180,56.904 300.915,53.030 300.188 C 51.097 299.826,51.109 299.889,50.938 289.562 L 50.781 280.156 46.563 280.156 L 42.344 280.156 42.261 289.984 C 42.192 298.209,42.258 300.051,42.666 301.278 C 45.076 308.536,59.689 309.086,63.274 302.054 L 64.219 300.201 64.219 290.179 L 64.219 280.156 61.147 280.000 C 59.457 279.914,57.875 279.956,57.631 280.094 M68.095 280.192 C 67.925 280.398,67.839 285.870,67.887 293.474 L 67.969 306.406 71.406 306.406 L 74.844 306.406 75.000 299.403 L 75.156 292.400 76.528 294.716 C 78.541 298.115,83.150 305.381,83.701 306.026 C 84.112 306.506,84.630 306.570,87.479 306.494 L 90.781 306.406 90.781 293.281 L 90.781 280.156 87.685 280.000 C 83.407 279.784,83.669 279.348,83.798 286.477 C 83.857 289.761,83.877 292.419,83.842 292.384 C 83.806 292.348,82.281 289.933,80.454 287.019 C 75.544 279.188,76.458 279.965,72.083 279.899 C 69.677 279.863,68.283 279.966,68.095 280.192 M101.440 279.948 C 100.750 280.082,100.912 279.624,96.516 293.867 C 94.258 301.181,92.879 306.129,93.051 306.301 C 93.207 306.457,94.789 306.545,96.566 306.496 L 99.797 306.406 100.533 303.984 L 101.269 301.563 104.632 301.563 L 107.994 301.563 108.556 303.672 C 109.351 306.658,109.183 306.563,113.642 306.563 C 118.173 306.563,118.138 306.590,117.239 303.702 C 112.555 288.658,109.912 280.420,109.698 280.202 C 109.445 279.946,102.547 279.734,101.440 279.948 M181.692 279.974 C 181.368 280.299,181.588 286.150,181.938 286.500 C 182.161 286.723,183.235 286.875,184.589 286.875 L 186.866 286.875 186.949 296.641 L 187.031 306.406 190.938 306.406 L 194.844 306.406 194.926 296.641 L 195.009 286.875 197.442 286.875 C 198.918 286.875,200.023 286.727,200.250 286.500 C 200.779 285.971,200.765 280.343,200.234 280.154 C 199.731 279.975,181.864 279.802,181.692 279.974 M206.899 280.136 C 206.310 280.866,198.699 306.011,198.981 306.294 C 199.142 306.454,200.733 306.545,202.518 306.496 L 205.763 306.406 206.427 304.063 L 207.091 301.719 210.482 301.719 L 213.872 301.719 214.467 303.750 C 214.795 304.867,215.206 305.957,215.382 306.172 C 215.736 306.605,223.610 306.750,223.842 306.328 C 223.972 306.090,215.911 280.460,215.625 280.204 C 215.261 279.880,207.157 279.816,206.899 280.136 M287.643 280.156 C 287.430 280.328,286.588 283.070,285.772 286.250 C 284.957 289.430,284.193 292.140,284.074 292.274 C 283.955 292.407,283.096 289.735,282.164 286.336 L 280.469 280.156 275.000 280.156 L 269.531 280.156 269.531 293.281 L 269.531 306.406 272.656 306.406 L 275.781 306.406 275.881 298.125 L 275.980 289.844 277.634 295.938 C 278.543 299.289,279.554 303.016,279.881 304.219 L 280.475 306.406 283.278 306.406 L 286.081 306.406 286.914 303.281 C 287.373 301.563,288.314 297.977,289.005 295.313 L 290.263 290.469 290.288 298.165 C 290.317 307.342,289.929 306.615,294.732 306.495 L 298.281 306.406 298.281 293.187 L 298.281 279.968 293.156 279.906 C 290.108 279.869,287.873 279.970,287.643 280.156 M302.613 280.156 C 302.547 280.328,302.530 286.305,302.575 293.438 L 302.656 306.406 306.519 306.494 C 311.517 306.608,311.250 306.886,311.250 301.564 L 311.250 297.266 314.766 297.106 C 321.557 296.798,324.868 294.268,325.237 289.105 C 325.650 283.328,322.014 280.268,314.531 280.096 C 303.772 279.848,302.729 279.853,302.613 280.156 M327.933 280.136 C 327.863 280.319,327.842 286.305,327.887 293.438 L 327.969 306.406 332.031 306.406 L 336.094 306.406 336.094 293.127 L 336.094 279.847 332.077 279.825 C 329.504 279.811,328.015 279.923,327.933 280.136 M346.468 280.278 C 346.234 280.555,345.086 283.875,343.918 287.656 C 342.750 291.438,340.979 297.133,339.983 300.313 C 338.987 303.492,338.279 306.204,338.410 306.340 C 338.541 306.475,340.112 306.545,341.902 306.496 L 345.156 306.406 345.935 303.984 L 346.713 301.563 350.019 301.563 L 353.325 301.563 354.084 303.984 L 354.844 306.406 358.881 306.494 C 361.101 306.542,363.045 306.455,363.200 306.300 C 363.503 305.997,355.779 281.049,355.186 280.415 C 354.592 279.780,346.990 279.660,346.468 280.278 M235.771 280.382 C 235.687 280.602,235.655 286.547,235.700 293.594 L 235.781 306.406 245.156 306.406 L 254.531 306.406 254.531 303.125 L 254.531 299.844 249.458 299.758 L 244.384 299.672 244.301 289.914 L 244.219 280.156 240.072 280.069 C 236.926 280.003,235.888 280.078,235.771 280.382 M257.021 280.382 C 256.937 280.602,256.905 286.547,256.950 293.594 L 257.031 306.406 261.094 306.406 L 265.156 306.406 265.156 293.281 L 265.156 280.156 261.166 280.069 C 258.145 280.003,257.138 280.079,257.021 280.382 M169.338 286.284 C 171.884 287.172,172.564 297.135,170.246 299.602 C 169.194 300.722,166.821 300.616,165.963 299.411 C 163.793 296.364,164.502 287.471,167.001 286.383 C 168.199 285.862,168.135 285.865,169.338 286.284 M316.055 286.964 C 316.469 287.267,316.580 287.711,316.506 288.754 C 316.381 290.488,315.654 290.926,312.891 290.933 L 310.938 290.938 310.938 288.750 L 310.938 286.563 313.222 286.563 C 314.590 286.563,315.726 286.724,316.055 286.964 M211.250 291.704 C 211.631 293.071,212.013 294.371,212.099 294.594 C 212.215 294.898,211.805 295.000,210.476 295.000 C 209.182 295.000,208.739 294.894,208.847 294.609 C 208.930 294.395,209.323 293.066,209.722 291.656 C 210.121 290.247,210.473 289.122,210.503 289.156 C 210.533 289.191,210.869 290.337,211.250 291.704 M105.319 291.641 C 105.682 292.887,106.049 294.152,106.135 294.453 C 106.271 294.926,106.063 295.000,104.596 295.000 L 102.899 295.000 103.694 292.188 C 104.646 288.817,104.512 288.862,105.319 291.641 M351.432 294.922 C 351.165 295.189,348.862 295.217,348.602 294.956 C 348.426 294.781,349.561 290.174,349.934 289.551 C 350.030 289.390,350.456 290.483,350.880 291.981 C 351.304 293.478,351.553 294.802,351.432 294.922 M122.401 317.640 C 117.271 319.470,117.887 324.514,123.594 327.403 C 125.589 328.413,126.563 329.311,126.563 330.141 C 126.563 332.725,122.559 333.070,121.237 330.600 C 120.904 329.979,118.438 330.792,118.438 331.523 C 118.438 334.424,124.701 336.502,127.406 334.497 C 131.200 331.686,130.414 327.211,125.735 324.978 C 123.225 323.780,122.500 323.087,122.500 321.886 C 122.500 320.287,124.800 319.730,126.353 320.951 C 127.109 321.546,127.229 321.557,128.094 321.110 C 131.236 319.485,126.065 316.333,122.401 317.640 M151.167 317.513 C 140.747 320.099,142.252 335.272,152.932 335.306 C 158.089 335.322,161.010 332.744,161.068 328.125 L 161.094 326.094 157.656 326.094 L 154.219 326.094 154.219 327.344 L 154.219 328.594 156.016 328.687 C 159.973 328.894,157.398 332.293,153.281 332.298 C 149.583 332.302,147.500 330.161,147.500 326.358 C 147.500 321.356,152.348 318.672,156.407 321.427 L 157.565 322.212 158.651 321.384 L 159.737 320.555 158.853 319.612 C 157.173 317.820,153.723 316.878,151.167 317.513 M180.781 317.468 C 170.347 320.259,171.574 334.750,182.288 335.264 C 187.267 335.502,190.112 333.294,190.764 328.684 C 191.120 326.166,190.820 325.938,187.166 325.938 C 184.213 325.938,184.028 325.976,183.781 326.641 C 183.266 328.022,183.804 328.585,185.738 328.687 C 189.666 328.896,187.057 332.296,182.969 332.296 C 179.195 332.296,177.139 330.157,177.129 326.221 C 177.117 321.338,182.080 318.703,186.122 321.445 L 187.252 322.212 188.338 321.384 L 189.425 320.555 188.541 319.612 C 186.897 317.859,183.171 316.829,180.781 317.468 M201.484 318.011 C 201.240 318.503,200.289 320.929,199.371 323.402 L 197.702 327.897 196.657 325.121 C 196.083 323.593,195.229 321.359,194.760 320.156 L 193.906 317.969 192.575 317.873 C 191.652 317.806,191.193 317.911,191.076 318.215 C 190.910 318.648,196.669 334.592,197.179 335.112 C 197.584 335.524,198.208 334.305,200.163 329.288 C 201.152 326.748,201.995 324.709,202.035 324.757 C 202.076 324.805,202.982 327.023,204.050 329.687 C 206.890 336.778,206.369 336.909,209.525 328.309 C 210.844 324.716,212.200 321.072,212.539 320.214 C 213.322 318.228,213.157 317.813,211.591 317.813 C 210.067 317.813,210.224 317.562,208.060 323.438 C 207.078 326.102,206.270 328.101,206.263 327.880 C 206.245 327.325,202.520 317.720,202.193 317.386 C 202.046 317.236,201.731 317.514,201.484 318.011 M255.779 317.550 C 255.689 317.785,255.652 321.773,255.698 326.411 L 255.781 334.844 257.188 334.844 L 258.594 334.844 258.750 329.495 L 258.906 324.145 264.688 329.708 C 267.867 332.768,270.584 335.158,270.725 335.020 C 271.090 334.662,271.057 318.432,270.690 318.065 C 270.526 317.901,269.917 317.812,269.337 317.868 L 268.281 317.969 268.125 323.374 L 267.969 328.778 266.563 327.332 C 262.235 322.880,255.929 317.159,255.779 317.550 M132.332 318.200 C 132.246 318.422,132.214 322.258,132.260 326.724 L 132.344 334.844 137.188 334.844 L 142.031 334.844 142.031 333.438 L 142.031 332.031 138.828 331.942 L 135.625 331.853 135.625 329.531 L 135.625 327.209 138.828 327.120 L 142.031 327.031 142.132 325.976 C 142.278 324.449,141.897 324.257,138.674 324.237 L 135.781 324.219 135.688 322.433 L 135.594 320.647 138.813 320.558 L 142.031 320.469 142.031 319.219 L 142.031 317.969 137.259 317.882 C 133.582 317.816,132.451 317.889,132.332 318.200 M214.829 318.208 C 214.745 318.426,214.714 322.258,214.760 326.724 L 214.844 334.844 218.809 334.841 C 222.318 334.839,222.873 334.765,223.633 334.197 C 226.385 332.142,226.728 328.434,224.351 326.434 C 223.489 325.709,223.483 325.681,224.067 325.152 C 226.010 323.394,225.308 319.571,222.803 318.277 C 221.621 317.665,215.059 317.609,214.829 318.208 M238.348 318.006 C 238.000 318.354,238.090 329.705,238.451 331.006 C 239.231 333.814,241.604 335.299,245.313 335.299 C 251.245 335.299,252.587 333.093,252.434 323.594 L 252.344 317.969 250.781 317.969 L 249.219 317.969 249.063 324.063 C 248.865 331.774,248.668 332.188,245.194 332.188 C 243.825 332.188,243.293 332.033,242.596 331.434 L 241.719 330.680 241.563 324.325 L 241.406 317.969 239.988 317.876 C 239.209 317.825,238.470 317.884,238.348 318.006 M272.715 318.014 C 271.564 319.165,272.815 320.564,275.104 320.686 L 276.905 320.781 276.902 327.550 C 276.899 335.096,276.904 335.112,278.963 334.942 L 280.156 334.844 280.240 327.749 L 280.324 320.653 282.428 320.561 L 284.531 320.469 284.531 319.219 L 284.531 317.969 278.731 317.884 C 275.540 317.837,272.833 317.896,272.715 318.014 M221.250 321.250 C 222.778 322.778,221.611 324.688,219.149 324.688 L 217.813 324.688 217.813 322.656 L 217.813 320.625 219.219 320.625 C 220.208 320.625,220.810 320.810,221.250 321.250 M221.875 328.125 C 223.213 329.463,222.478 331.417,220.460 331.885 C 217.834 332.494,217.813 332.477,217.813 329.844 L 217.813 327.500 219.531 327.500 C 220.833 327.500,221.402 327.652,221.875 328.125 M163.878 328.243 C 163.782 328.493,163.749 329.096,163.805 329.583 L 163.906 330.469 167.031 330.469 L 170.156 330.469 170.156 329.219 L 170.156 327.969 167.104 327.879 C 164.664 327.808,164.017 327.881,163.878 328.243 M228.766 328.262 C 228.560 328.510,228.438 329.107,228.493 329.590 L 228.594 330.469 231.875 330.469 L 235.156 330.469 235.257 329.590 C 235.429 328.087,234.907 327.813,231.875 327.813 C 229.875 327.813,229.039 327.934,228.766 328.262 " stroke="none" fill="#000000" fill-rule="evenodd"></path></g></svg>