<?xml version="1.0" encoding="UTF-8"?>
<svg xmlns="http://www.w3.org/2000/svg" xmlns:xlink="http://www.w3.org/1999/xlink" width="300px" height="280px" viewBox="0 0 300 280" version="1.1">
<g id="surface1">
<path style=" stroke:none;fill-rule:evenodd;fill:rgb(0%,0%,0%);fill-opacity:1;" d="M 137.265625 25.273438 C 137.179688 25.410156 137.269531 26.558594 137.460938 27.832031 C 139.25 39.714844 135.464844 49.988281 121.644531 70.726562 C 106.335938 93.699219 100.515625 106.410156 96.835938 124.917969 C 90.929688 154.605469 110.886719 184.492188 140.609375 190.46875 C 150.074219 192.371094 162.511719 191.730469 169.335938 188.984375 C 170.109375 188.671875 172.007812 187.921875 173.554688 187.320312 C 176.390625 186.210938 179.492188 184.589844 181.882812 182.96875 C 184.722656 181.042969 184.199219 180.691406 180.835938 182.265625 C 168.667969 187.953125 154.984375 189.398438 142.207031 186.351562 C 139.472656 185.699219 139.035156 185.445312 140.210938 185.203125 C 143.3125 184.5625 148.992188 182.65625 151.445312 181.425781 C 152.867188 180.714844 153.300781 180.621094 156.25 180.398438 C 171.117188 179.273438 181.894531 174.585938 191.257812 165.167969 C 196.378906 160.019531 201.515625 152.707031 200.972656 151.339844 C 200.789062 150.882812 200.816406 150.851562 198.78125 154.003906 C 191.085938 165.921875 177.105469 174.5625 161.953125 176.773438 C 159.316406 177.15625 150.367188 177.21875 148.125 176.871094 C 145.5625 176.472656 142.214844 175.664062 141.097656 175.179688 L 140.039062 174.71875 L 143.554688 173.839844 C 149.921875 172.246094 154.90625 170.429688 157.792969 168.652344 C 158.425781 168.261719 159.488281 167.839844 160.15625 167.714844 C 174.5 165 187.15625 155.707031 193.359375 143.335938 C 195.566406 138.929688 195.402344 137.785156 193.070312 141.371094 C 184.804688 154.09375 176.246094 161.273438 166.40625 163.738281 C 165.828125 163.882812 165.140625 164.0625 164.882812 164.136719 C 164.625 164.210938 165.859375 162.878906 167.628906 161.179688 C 171.0625 157.867188 173.332031 155.226562 173.082031 154.820312 C 172.996094 154.683594 171.53125 155.925781 169.707031 157.691406 C 164.878906 162.359375 160.808594 165.140625 158.050781 165.664062 C 152.652344 166.6875 140.683594 165.515625 136.097656 163.515625 C 134.9375 163.007812 134.878906 163.039062 138.75 162.214844 C 144.019531 161.09375 146.5625 160.269531 150.78125 158.308594 C 152.765625 157.390625 154.84375 156.640625 156.875 156.117188 C 169.246094 152.933594 179.054688 144.90625 184.683594 133.359375 C 186.449219 129.746094 186.996094 128.1875 186.632812 127.824219 C 186.429688 127.621094 185.957031 128.386719 184.714844 130.925781 C 177.601562 145.488281 166.445312 153.488281 150.710938 155.308594 C 129.59375 157.75 110.070312 144.386719 104.867188 123.921875 C 102.320312 113.921875 106.984375 101.84375 124.109375 74.109375 C 137.421875 52.542969 138.367188 50.734375 139.375 44.996094 C 140.257812 39.949219 140.304688 33.101562 139.480469 29.929688 C 138.6875 26.898438 137.632812 24.675781 137.265625 25.273438 M 104.042969 131.132812 C 105.425781 136.476562 107.902344 142.65625 110.046875 146.113281 L 110.679688 147.132812 L 110.125 146.96875 C 107.886719 146.304688 107.101562 145.722656 106.421875 144.21875 C 104.535156 140.042969 103.132812 133.476562 102.800781 127.261719 L 102.675781 124.917969 L 103.011719 126.675781 C 103.195312 127.640625 103.660156 129.648438 104.042969 131.132812 M 101.09375 130.546875 C 101.253906 133.285156 101.90625 137.164062 102.851562 141.03125 L 103.523438 143.773438 L 102.664062 143.335938 C 100.976562 142.472656 100.773438 141.46875 100.628906 133.359375 C 100.527344 127.503906 100.808594 125.785156 101.09375 130.546875 M 107.640625 134.3125 C 109.988281 138.980469 113.617188 143.4375 117.996094 147.027344 C 120.886719 149.398438 120.820312 149.273438 119.132812 149.09375 C 117.65625 148.9375 114.71875 148.375 114.066406 148.125 C 112.5 147.523438 107.34375 137.34375 105.679688 131.5625 C 104.644531 127.957031 104.632812 127.21875 105.65625 129.84375 C 106.160156 131.132812 107.050781 133.144531 107.640625 134.3125 M 104.335938 146.375 C 105.066406 148.308594 106.890625 152.105469 107.972656 153.9375 C 108.664062 155.109375 109.175781 156.117188 109.113281 156.179688 C 108.945312 156.347656 106.699219 155.167969 105.453125 154.257812 C 104.203125 153.34375 103.046875 150.417969 101.851562 145.128906 L 101.699219 144.464844 L 102.90625 145.121094 C 103.628906 145.515625 104.203125 146.019531 104.335938 146.375 M 110.859375 149.085938 C 112.488281 149.675781 112.761719 149.878906 114.597656 151.863281 C 117.085938 154.550781 120.632812 157.878906 122.429688 159.207031 L 123.800781 160.222656 L 122.78125 160.21875 C 118.996094 160.214844 115.722656 159.21875 114.308594 157.644531 C 111.902344 154.96875 107.730469 147.902344 108.808594 148.335938 C 108.96875 148.398438 109.890625 148.738281 110.859375 149.085938 M 120.46875 150.980469 L 123.398438 151.136719 L 126.914062 152.96875 C 132.605469 155.9375 137.234375 157.199219 143.789062 157.582031 L 146.835938 157.757812 L 145.429688 158.273438 C 138.441406 160.835938 130.878906 161.773438 128.285156 160.402344 C 125.753906 159.070312 118.441406 153.304688 116.894531 151.429688 L 116.15625 150.53125 L 116.847656 150.675781 C 117.226562 150.757812 118.859375 150.894531 120.46875 150.980469 M 108.550781 158.316406 C 110.910156 159.128906 111.6875 159.699219 114.726562 162.839844 C 118.363281 166.601562 121.03125 169.085938 122.929688 170.476562 L 124.335938 171.507812 L 123.046875 171.355469 C 114.621094 170.351562 112.207031 168.621094 107.839844 160.4375 C 106.269531 157.492188 106.257812 157.527344 108.550781 158.316406 M 126 162.820312 C 128.144531 163.023438 128.730469 163.195312 132.210938 164.652344 C 139.160156 167.558594 142.242188 168.296875 148.710938 168.59375 C 152.628906 168.777344 152.535156 168.859375 146.804688 170.324219 C 137.484375 172.703125 134.308594 172.855469 130.746094 171.085938 C 126.707031 169.078125 121.769531 165.570312 119.414062 163.039062 L 118.710938 162.28125 L 121.171875 162.4375 C 122.523438 162.523438 124.699219 162.695312 126 162.820312 M 124.058594 175.007812 C 125.5 175.128906 127.746094 175.230469 129.050781 175.230469 C 131.320312 175.234375 131.503906 175.273438 133.417969 176.171875 C 136.34375 177.542969 143.242188 179.324219 148.476562 180.054688 C 150.511719 180.339844 150.394531 180.523438 147.675781 181.316406 C 143.5625 182.519531 139.25 183.261719 136.171875 183.296875 L 133.476562 183.328125 L 131.132812 182.132812 C 127.496094 180.277344 119.765625 175.160156 119.765625 174.605469 C 119.765625 174.535156 120.140625 174.550781 120.601562 174.636719 C 121.0625 174.722656 122.617188 174.890625 124.058594 175.007812 M 104.03125 209.945312 C 94.867188 211.609375 93.609375 226.753906 102.375 229.941406 C 104.777344 230.816406 108.195312 230.367188 109.960938 228.949219 L 110.824219 228.257812 L 110.972656 228.941406 C 111.195312 229.949219 111.59375 230.160156 113.125 230.082031 L 114.492188 230.011719 L 114.492188 218.75 L 110.304688 218.6875 C 105.214844 218.609375 105.429688 218.496094 105.519531 221.191406 L 105.585938 223.207031 L 107.152344 223.277344 L 108.71875 223.34375 L 108.488281 224.003906 C 107.808594 225.957031 104.558594 225.683594 103.648438 223.597656 C 103.050781 222.234375 103.125 217.679688 103.765625 216.25 C 104.792969 213.945312 107.34375 214.035156 108.148438 216.402344 C 108.527344 217.507812 108.945312 217.597656 112.242188 217.292969 C 114.679688 217.0625 114.828125 216.886719 114.144531 215.054688 C 112.730469 211.277344 108.492188 209.132812 104.03125 209.945312 M 124.136719 209.949219 C 117.941406 211.066406 114.609375 219 117.667969 225.347656 C 120.707031 231.65625 130.1875 232.148438 133.996094 226.191406 C 138.988281 218.390625 132.90625 208.371094 124.136719 209.949219 M 43.222656 210.257812 C 42.949219 210.414062 42.890625 211.617188 42.890625 217.253906 C 42.890625 225.335938 42.679688 225.886719 39.773438 225.34375 C 38.324219 225.070312 38.332031 225.117188 38.203125 217.367188 L 38.085938 210.304688 L 31.757812 210.304688 L 31.695312 217.683594 C 31.644531 223.855469 31.695312 225.238281 32 226.160156 C 33.808594 231.609375 44.765625 232.023438 47.457031 226.742188 L 48.164062 225.351562 L 48.164062 210.304688 L 45.859375 210.1875 C 44.59375 210.125 43.40625 210.15625 43.222656 210.257812 M 51.070312 210.332031 C 50.945312 210.488281 50.878906 214.59375 50.914062 220.300781 L 50.976562 230.011719 L 56.132812 230.011719 L 56.367188 219.496094 L 57.394531 221.234375 C 58.90625 223.785156 62.363281 229.242188 62.777344 229.726562 C 63.085938 230.085938 63.472656 230.132812 65.609375 230.074219 L 68.085938 230.011719 L 68.085938 210.304688 L 65.765625 210.1875 C 62.554688 210.027344 62.75 209.699219 62.847656 215.050781 C 62.894531 217.515625 62.90625 219.511719 62.882812 219.484375 C 62.855469 219.457031 61.710938 217.644531 60.339844 215.457031 C 56.65625 209.578125 57.34375 210.160156 54.0625 210.113281 C 52.257812 210.085938 51.210938 210.164062 51.070312 210.332031 M 76.078125 210.148438 C 75.5625 210.25 75.683594 209.90625 72.386719 220.597656 C 70.695312 226.085938 69.660156 229.800781 69.789062 229.929688 C 69.90625 230.046875 71.089844 230.113281 72.425781 230.078125 L 74.847656 230.011719 L 75.398438 228.191406 L 75.953125 226.375 L 80.996094 226.375 L 81.417969 227.957031 C 82.011719 230.199219 81.886719 230.128906 85.230469 230.128906 C 88.628906 230.128906 88.601562 230.148438 87.929688 227.980469 C 84.417969 216.6875 82.433594 210.503906 82.273438 210.339844 C 82.082031 210.148438 76.910156 209.988281 76.078125 210.148438 M 136.269531 210.167969 C 136.027344 210.414062 136.191406 214.804688 136.453125 215.066406 C 136.621094 215.234375 137.425781 215.347656 138.441406 215.347656 L 140.148438 215.347656 L 140.273438 230.011719 L 146.132812 230.011719 L 146.257812 215.347656 L 148.082031 215.347656 C 149.1875 215.347656 150.015625 215.238281 150.1875 215.066406 C 150.585938 214.667969 150.574219 210.445312 150.175781 210.304688 C 149.796875 210.167969 136.398438 210.039062 136.269531 210.167969 M 155.175781 210.289062 C 154.734375 210.835938 149.023438 229.714844 149.234375 229.925781 C 149.355469 230.046875 150.550781 230.113281 151.886719 230.078125 L 154.320312 230.011719 L 154.820312 228.25 L 155.316406 226.492188 L 160.402344 226.492188 L 160.851562 228.015625 C 161.097656 228.855469 161.40625 229.671875 161.535156 229.835938 C 161.800781 230.160156 167.707031 230.269531 167.882812 229.953125 C 167.980469 229.773438 161.933594 210.53125 161.71875 210.339844 C 161.445312 210.097656 155.367188 210.050781 155.175781 210.289062 M 215.730469 210.304688 C 215.574219 210.433594 214.941406 212.492188 214.328125 214.878906 C 213.71875 217.265625 213.144531 219.300781 213.054688 219.402344 C 212.964844 219.5 212.320312 217.496094 211.621094 214.945312 L 210.351562 210.304688 L 202.148438 210.304688 L 202.148438 230.011719 L 206.835938 230.011719 L 206.910156 223.792969 L 206.984375 217.578125 L 208.226562 222.152344 C 208.90625 224.667969 209.664062 227.464844 209.910156 228.367188 L 210.355469 230.011719 L 214.5625 230.011719 L 215.183594 227.664062 C 215.53125 226.375 216.234375 223.683594 216.753906 221.683594 L 217.695312 218.046875 L 217.714844 223.824219 C 217.738281 230.710938 217.445312 230.167969 221.050781 230.078125 L 223.710938 230.011719 L 223.710938 210.164062 L 219.867188 210.117188 C 217.582031 210.089844 215.90625 210.164062 215.730469 210.304688 M 226.960938 210.304688 C 226.910156 210.433594 226.898438 214.921875 226.929688 220.273438 L 226.992188 230.011719 L 229.890625 230.074219 C 233.636719 230.160156 233.4375 230.371094 233.4375 226.375 L 233.4375 223.148438 L 236.074219 223.027344 C 241.167969 222.796875 243.652344 220.898438 243.929688 217.023438 C 244.238281 212.6875 241.511719 210.390625 235.898438 210.257812 C 227.828125 210.074219 227.046875 210.078125 226.960938 210.304688 M 245.949219 210.289062 C 245.898438 210.425781 245.882812 214.921875 245.914062 220.273438 L 245.976562 230.011719 L 252.070312 230.011719 L 252.070312 210.074219 L 249.058594 210.054688 C 247.128906 210.046875 246.011719 210.128906 245.949219 210.289062 M 259.851562 210.394531 C 259.675781 210.605469 258.816406 213.097656 257.9375 215.933594 C 257.0625 218.773438 255.734375 223.050781 254.988281 225.4375 C 254.242188 227.824219 253.710938 229.859375 253.808594 229.960938 C 253.90625 230.0625 255.085938 230.113281 256.425781 230.078125 L 258.867188 230.011719 L 259.453125 228.191406 L 260.035156 226.375 L 264.992188 226.375 L 265.5625 228.191406 L 266.132812 230.011719 L 269.160156 230.074219 C 270.824219 230.113281 272.285156 230.046875 272.398438 229.929688 C 272.628906 229.703125 266.835938 210.976562 266.390625 210.5 C 265.945312 210.023438 260.242188 209.933594 259.851562 210.394531 M 176.828125 210.472656 C 176.765625 210.640625 176.742188 215.101562 176.773438 220.390625 L 176.835938 230.011719 L 190.898438 230.011719 L 190.898438 225.082031 L 187.09375 225.019531 L 183.289062 224.953125 L 183.164062 210.304688 L 180.054688 210.238281 C 177.695312 210.191406 176.914062 210.246094 176.828125 210.472656 M 192.765625 210.472656 C 192.703125 210.640625 192.679688 215.101562 192.710938 220.390625 L 192.773438 230.011719 L 198.867188 230.011719 L 198.867188 210.304688 L 195.875 210.238281 C 193.609375 210.191406 192.851562 210.246094 192.765625 210.472656 M 127.003906 214.90625 C 128.914062 215.570312 129.421875 223.050781 127.683594 224.902344 C 126.894531 225.742188 125.117188 225.664062 124.472656 224.757812 C 122.84375 222.472656 123.375 215.796875 125.25 214.980469 C 126.148438 214.589844 126.101562 214.589844 127.003906 214.90625 M 237.042969 215.414062 C 237.351562 215.644531 237.433594 215.976562 237.378906 216.757812 C 237.285156 218.0625 236.742188 218.390625 234.667969 218.394531 L 233.203125 218.398438 L 233.203125 215.113281 L 234.917969 215.113281 C 235.941406 215.113281 236.792969 215.234375 237.042969 215.414062 M 158.4375 218.972656 C 158.722656 220 159.007812 220.976562 159.074219 221.144531 C 159.160156 221.371094 158.855469 221.449219 157.855469 221.449219 C 156.886719 221.449219 156.554688 221.367188 156.636719 221.152344 C 156.699219 220.992188 156.992188 219.996094 157.292969 218.9375 C 157.589844 217.878906 157.855469 217.035156 157.878906 217.0625 C 157.898438 217.085938 158.152344 217.949219 158.4375 218.972656 M 78.988281 218.925781 C 79.261719 219.863281 79.535156 220.8125 79.601562 221.035156 C 79.703125 221.390625 79.546875 221.449219 78.445312 221.449219 L 77.175781 221.449219 L 77.769531 219.335938 C 78.484375 216.804688 78.382812 216.839844 78.988281 218.925781 M 263.574219 221.390625 C 263.375 221.589844 261.648438 221.609375 261.453125 221.414062 C 261.320312 221.285156 262.171875 217.824219 262.449219 217.355469 C 262.523438 217.238281 262.84375 218.058594 263.160156 219.179688 C 263.476562 220.304688 263.664062 221.300781 263.574219 221.390625 M 91.800781 238.441406 C 87.953125 239.816406 88.414062 243.601562 92.695312 245.773438 C 94.191406 246.53125 94.921875 247.203125 94.921875 247.828125 C 94.921875 249.765625 91.917969 250.027344 90.929688 248.171875 C 90.679688 247.707031 88.828125 248.316406 88.828125 248.863281 C 88.828125 251.042969 93.527344 252.601562 95.554688 251.097656 C 98.398438 248.988281 97.808594 245.628906 94.300781 243.953125 C 92.417969 243.050781 91.875 242.53125 91.875 241.628906 C 91.875 240.429688 93.601562 240.011719 94.765625 240.929688 C 95.332031 241.375 95.421875 241.382812 96.070312 241.046875 C 98.425781 239.828125 94.546875 237.460938 91.800781 238.441406 M 113.375 238.347656 C 105.558594 240.289062 106.6875 251.679688 114.699219 251.703125 C 118.566406 251.714844 120.757812 249.78125 120.800781 246.3125 L 120.820312 244.789062 L 115.664062 244.789062 L 115.664062 246.664062 L 117.011719 246.734375 C 119.980469 246.890625 118.046875 249.441406 114.960938 249.445312 C 112.1875 249.449219 110.625 247.84375 110.625 244.988281 C 110.625 241.230469 114.261719 239.21875 117.304688 241.285156 L 118.171875 241.875 L 119.804688 240.632812 L 119.140625 239.921875 C 117.878906 238.578125 115.292969 237.871094 113.375 238.347656 M 135.585938 238.3125 C 127.761719 240.410156 128.679688 251.285156 136.714844 251.671875 C 140.449219 251.851562 142.585938 250.195312 143.074219 246.734375 C 143.339844 244.84375 143.113281 244.671875 140.375 244.671875 C 138.160156 244.671875 138.019531 244.699219 137.835938 245.199219 C 137.449219 246.238281 137.851562 246.660156 139.304688 246.734375 C 142.25 246.890625 140.292969 249.445312 137.226562 249.445312 C 134.394531 249.445312 132.855469 247.839844 132.847656 244.882812 C 132.835938 241.21875 136.558594 239.242188 139.589844 241.300781 L 140.4375 241.875 L 142.070312 240.632812 L 141.40625 239.921875 C 140.171875 238.605469 137.378906 237.835938 135.585938 238.3125 M 151.113281 238.722656 C 150.929688 239.089844 150.214844 240.910156 149.527344 242.769531 L 148.277344 246.140625 L 147.492188 244.058594 C 147.0625 242.910156 146.421875 241.234375 146.070312 240.332031 L 145.429688 238.691406 L 144.429688 238.617188 C 143.738281 238.566406 143.394531 238.644531 143.308594 238.875 C 143.183594 239.199219 147.5 251.167969 147.882812 251.558594 C 148.1875 251.867188 148.65625 250.953125 150.121094 247.1875 C 150.863281 245.28125 151.496094 243.75 151.527344 243.785156 C 151.558594 243.820312 152.238281 245.488281 153.039062 247.484375 C 155.167969 252.808594 154.777344 252.90625 157.144531 246.453125 C 158.132812 243.753906 159.148438 241.019531 159.402344 240.375 C 159.992188 238.882812 159.867188 238.574219 158.691406 238.574219 C 157.550781 238.574219 157.667969 238.382812 156.046875 242.796875 C 155.308594 244.796875 154.703125 246.296875 154.695312 246.128906 C 154.683594 245.714844 151.890625 238.503906 151.644531 238.253906 C 151.535156 238.140625 151.296875 238.347656 151.113281 238.722656 M 191.835938 238.375 C 191.765625 238.550781 191.738281 241.546875 191.773438 245.027344 L 191.835938 251.359375 L 193.945312 251.359375 L 194.0625 247.34375 L 194.179688 243.324219 L 198.515625 247.503906 C 200.898438 249.800781 202.9375 251.59375 203.042969 251.488281 C 203.316406 251.222656 203.292969 239.039062 203.015625 238.761719 C 202.894531 238.640625 202.4375 238.570312 202.003906 238.613281 L 201.210938 238.691406 L 201.09375 242.746094 L 200.976562 246.804688 L 199.921875 245.71875 C 196.675781 242.375 191.945312 238.082031 191.835938 238.375 M 99.25 238.863281 C 99.183594 239.03125 99.160156 241.910156 99.195312 245.261719 L 99.257812 251.359375 L 106.523438 251.359375 L 106.523438 249.246094 L 101.71875 249.113281 L 101.71875 245.625 L 106.523438 245.492188 L 106.597656 244.699219 C 106.707031 243.554688 106.421875 243.410156 104.003906 243.394531 L 101.835938 243.382812 L 101.765625 242.039062 L 101.695312 240.699219 L 106.523438 240.566406 L 106.523438 238.691406 L 102.945312 238.625 C 100.1875 238.574219 99.339844 238.628906 99.25 238.863281 M 161.121094 238.871094 C 161.058594 239.03125 161.035156 241.910156 161.070312 245.261719 L 161.132812 251.359375 L 164.105469 251.355469 C 166.738281 251.355469 167.15625 251.296875 167.726562 250.871094 C 169.789062 249.328125 170.046875 246.546875 168.261719 245.042969 C 167.617188 244.5 167.613281 244.480469 168.050781 244.082031 C 169.507812 242.761719 168.980469 239.890625 167.101562 238.921875 C 166.214844 238.460938 161.292969 238.417969 161.121094 238.871094 M 178.761719 238.71875 C 178.5 238.980469 178.566406 247.5 178.839844 248.476562 C 179.421875 250.585938 181.203125 251.699219 183.984375 251.699219 C 188.433594 251.699219 189.441406 250.042969 189.324219 242.914062 L 189.257812 238.691406 L 186.914062 238.691406 L 186.796875 243.265625 C 186.648438 249.054688 186.5 249.363281 183.894531 249.363281 C 182.867188 249.363281 182.46875 249.246094 181.945312 248.796875 L 181.289062 248.230469 L 181.054688 238.691406 L 179.992188 238.621094 C 179.40625 238.582031 178.851562 238.625 178.761719 238.71875 M 204.535156 238.722656 C 203.671875 239.585938 204.609375 240.636719 206.328125 240.730469 L 207.679688 240.800781 L 207.675781 245.882812 C 207.675781 251.546875 207.679688 251.558594 209.222656 251.429688 L 210.117188 251.359375 L 210.242188 240.703125 L 211.820312 240.636719 L 213.398438 240.566406 L 213.398438 238.691406 L 209.046875 238.625 C 206.65625 238.589844 204.625 238.636719 204.535156 238.722656 M 165.9375 241.152344 C 167.082031 242.300781 166.207031 243.734375 164.363281 243.734375 L 163.359375 243.734375 L 163.359375 240.683594 L 164.414062 240.683594 C 165.15625 240.683594 165.609375 240.824219 165.9375 241.152344 M 166.40625 246.3125 C 167.410156 247.316406 166.859375 248.785156 165.34375 249.136719 C 163.375 249.59375 163.359375 249.582031 163.359375 247.605469 L 163.359375 245.84375 L 164.648438 245.84375 C 165.625 245.84375 166.050781 245.957031 166.40625 246.3125 M 122.910156 246.402344 C 122.835938 246.589844 122.8125 247.042969 122.855469 247.40625 L 122.929688 248.074219 L 127.617188 248.074219 L 127.617188 246.195312 L 125.328125 246.128906 C 123.496094 246.074219 123.011719 246.128906 122.910156 246.402344 M 171.574219 246.417969 C 171.421875 246.601562 171.328125 247.050781 171.371094 247.414062 L 171.445312 248.074219 L 176.367188 248.074219 L 176.441406 247.414062 C 176.570312 246.285156 176.179688 246.078125 173.90625 246.078125 C 172.40625 246.078125 171.777344 246.171875 171.574219 246.417969 "/>
</g>
</svg>
