<?xml version="1.0" encoding="UTF-8"?>
<svg xmlns="http://www.w3.org/2000/svg" xmlns:xlink="http://www.w3.org/1999/xlink" width="150px" height="186px" viewBox="0 0 150 186" version="1.1">
<g id="surface1">
<path style=" stroke:none;fill-rule:nonzero;fill:rgb(0%,0%,0%);fill-opacity:1;" d="M 57.914062 15.441406 C 58.066406 15.8125 58.417969 17.039062 58.921875 19.027344 C 59.601562 21.609375 59.734375 26.617188 59.273438 30.445312 C 58.660156 35.234375 56.839844 41.359375 54.386719 46.804688 C 54.101562 47.460938 53.554688 48.6875 53.160156 49.539062 C 52.789062 50.371094 50.292969 55.402344 47.621094 60.695312 C 43.65625 68.523438 41.046875 73.949219 38.769531 79.066406 C 38.246094 80.25 37.304688 82.675781 36.121094 85.933594 C 33.273438 93.699219 31.277344 102.121094 30.554688 109.230469 C 30.511719 109.820312 30.359375 110.847656 30.25 111.527344 C 29.878906 113.648438 29.722656 115.921875 29.722656 119.203125 C 29.746094 124.738281 30.535156 129.679688 32.351562 135.496094 C 34.039062 140.898438 36.492188 145.710938 40.457031 151.355469 C 42.164062 153.78125 46.875 158.636719 50.027344 161.175781 C 57.957031 167.582031 68.054688 171.738281 78.308594 172.789062 C 82.644531 173.25 90.136719 173.007812 91.84375 172.375 C 92.105469 172.265625 93.113281 172.109375 94.078125 172.046875 C 96.355469 171.828125 97.363281 171.609375 99.882812 170.734375 C 101.023438 170.339844 102.664062 169.769531 103.496094 169.507812 C 104.351562 169.246094 105.140625 168.941406 105.25 168.851562 C 105.382812 168.765625 107.046875 167.867188 108.972656 166.882812 C 110.902344 165.898438 112.828125 164.828125 113.246094 164.5 C 113.660156 164.195312 114.296875 163.734375 114.691406 163.492188 C 116.640625 162.246094 119.160156 160.015625 118.894531 159.753906 C 118.851562 159.730469 117.953125 160.257812 116.859375 160.914062 C 107.265625 166.839844 96.269531 169.816406 85.316406 169.441406 C 79.226562 169.246094 76.007812 168.632812 77.5625 168 C 77.847656 167.890625 79.316406 167.277344 80.804688 166.664062 C 84.046875 165.332031 86.585938 164.0625 88.140625 163.035156 C 89.371094 162.226562 90.726562 161.765625 92.894531 161.414062 C 96.203125 160.867188 97.058594 160.671875 100.300781 159.730469 C 102.316406 159.164062 107.199219 157.128906 109.234375 156.058594 C 117.339844 151.726562 123.296875 146.082031 128.6875 137.640625 C 130.441406 134.886719 132.871094 129.679688 132.609375 129.21875 C 132.542969 129.109375 131.863281 130.226562 131.140625 131.714844 C 125.007812 143.960938 112.019531 154.199219 98.195312 157.675781 C 97.671875 157.808594 96.882812 158.003906 96.445312 158.136719 C 94.890625 158.550781 85.996094 159.425781 84.332031 159.339844 C 78.503906 159.011719 75.21875 158.089844 77.429688 157.414062 C 81.265625 156.253906 88.253906 153.171875 90.289062 151.75 C 90.597656 151.53125 90.925781 151.355469 91.011719 151.355469 C 91.097656 151.355469 91.910156 150.808594 92.808594 150.152344 C 93.726562 149.496094 94.625 148.949219 94.824219 148.949219 C 95.480469 148.949219 99.3125 147.417969 102.25 145.972656 C 105.863281 144.222656 108.230469 142.671875 111.425781 140.046875 C 113.683594 138.1875 117.933594 133.792969 118.566406 132.652344 C 118.722656 132.390625 119.445312 131.253906 120.210938 130.117188 C 121.808594 127.734375 123.453125 124.453125 124.527344 121.457031 C 125.816406 117.933594 125.46875 117.847656 123.691406 121.28125 C 118.304688 131.605469 113.421875 137.53125 106.671875 141.839844 C 104.703125 143.109375 101.371094 144.707031 100.125 144.988281 C 99.246094 145.1875 99.226562 145.164062 99.359375 144.726562 C 99.421875 144.464844 99.859375 143.851562 100.320312 143.371094 C 102.226562 141.335938 106.015625 136.285156 106.015625 135.78125 C 106.015625 135.433594 105.820312 135.652344 104.21875 137.617188 C 101.417969 141.164062 98.855469 143.742188 95.941406 145.972656 C 94.714844 146.914062 94.144531 147.175781 92.546875 147.59375 C 88.425781 148.640625 84.460938 149.035156 80.058594 148.859375 C 76.992188 148.730469 72.109375 148.117188 71.078125 147.722656 C 70.246094 147.394531 70.992188 146.914062 73.707031 145.996094 C 78.8125 144.289062 82.273438 142.757812 84.769531 141.097656 C 86.71875 139.785156 88.273438 138.996094 90.136719 138.363281 C 91.933594 137.75 95.917969 135.871094 97.691406 134.820312 C 103.191406 131.582031 109.28125 125.109375 112.414062 119.203125 C 114.164062 115.898438 116.3125 110.015625 116.3125 108.574219 C 116.289062 107.675781 116.070312 108.136719 115.105469 111.042969 C 114.078125 114.214844 111.753906 118.875 109.652344 122.023438 C 104.132812 130.25 96.027344 135.671875 85.425781 138.230469 C 81.066406 139.28125 73.203125 139.742188 69.875 139.128906 C 69.21875 138.996094 68.035156 138.800781 67.246094 138.667969 C 64.3125 138.164062 59.90625 136.699219 57.105469 135.257812 C 48.976562 131.035156 42.777344 124.738281 38.53125 116.335938 C 35.132812 109.601562 34.785156 103.980469 37.214844 95.230469 C 37.808594 93.109375 40.765625 84.863281 42.539062 80.378906 C 44.3125 75.875 47.574219 68.613281 51.144531 61.132812 C 51.847656 59.6875 52.765625 57.71875 53.226562 56.757812 C 53.664062 55.796875 54.5625 53.914062 55.199219 52.601562 C 56.164062 50.566406 56.796875 49.191406 58.265625 45.820312 C 60.628906 40.441406 61.507812 37.707031 61.683594 35.148438 C 62.273438 26.726562 61.332031 20.296875 58.945312 16.207031 C 58.351562 15.199219 57.609375 14.632812 57.914062 15.441406 Z M 37.347656 119.75 C 39.472656 125.0625 41.597656 129.109375 44.027344 132.5 C 44.75 133.507812 45.339844 134.402344 45.339844 134.535156 C 45.339844 134.644531 45.167969 134.730469 44.949219 134.730469 C 44.246094 134.730469 42.1875 134.054688 41.769531 133.683594 C 39.886719 131.996094 35.921875 121.433594 35.921875 118.109375 C 35.921875 117.605469 35.835938 117.039062 35.726562 116.839844 C 35.617188 116.644531 35.484375 115.964844 35.398438 115.375 C 35.289062 114.324219 35.289062 114.347656 35.902344 116.03125 C 36.25 116.992188 36.910156 118.65625 37.347656 119.75 Z M 40.652344 121.871094 C 41.15625 122.503906 41.925781 123.578125 42.40625 124.234375 C 44.75 127.535156 48.757812 131.210938 52.898438 133.902344 C 53.753906 134.449219 54.5625 135.039062 54.714844 135.234375 C 54.980469 135.542969 54.914062 135.605469 54.214844 135.738281 C 53.753906 135.824219 52.328125 135.78125 51.015625 135.671875 C 48.1875 135.433594 48.210938 135.433594 45.648438 132.085938 C 42.886719 128.433594 39.648438 123.097656 39.648438 122.132812 C 39.648438 121.957031 39.558594 121.652344 39.425781 121.433594 C 38.902344 120.472656 37.9375 117.933594 37.742188 117.015625 C 37.675781 116.710938 38.113281 117.429688 38.703125 118.589844 C 39.296875 119.75 40.171875 121.214844 40.652344 121.871094 Z M 34.257812 119.027344 C 34.390625 120.382812 34.804688 121.761719 36.710938 127.515625 C 37.960938 131.230469 38.15625 132.105469 37.742188 132.105469 C 37.148438 132.105469 35.964844 131.496094 35.726562 131.058594 C 35.484375 130.621094 35.15625 129.394531 34.828125 127.84375 C 34.738281 127.359375 34.542969 126.464844 34.410156 125.828125 C 34.28125 125.195312 34.082031 123.183594 33.953125 121.347656 C 33.820312 119.507812 33.667969 117.757812 33.601562 117.453125 C 33.492188 116.949219 33.511719 116.929688 33.796875 117.277344 C 33.972656 117.496094 34.171875 118.285156 34.257812 119.027344 Z M 38.355469 133.660156 C 38.96875 133.964844 39.40625 134.558594 40.589844 136.632812 C 41.398438 138.054688 42.757812 140.132812 43.589844 141.273438 C 45.277344 143.523438 45.320312 143.960938 43.875 143.523438 C 43.414062 143.371094 42.363281 142.890625 41.507812 142.429688 C 40.019531 141.644531 39.953125 141.578125 39.035156 139.761719 C 37.828125 137.355469 36.316406 133.441406 36.492188 133.179688 C 36.644531 132.9375 37.214844 133.089844 38.355469 133.660156 Z M 45.691406 136.285156 C 47.070312 136.613281 47.796875 136.898438 48.277344 137.355469 C 49.175781 138.1875 51.585938 140.199219 52.308594 140.746094 C 52.636719 140.988281 53.554688 141.6875 54.367188 142.320312 C 55.175781 142.957031 55.878906 143.480469 55.921875 143.480469 C 56.054688 143.480469 58.113281 144.859375 58.835938 145.425781 L 59.382812 145.863281 L 58.351562 146.019531 C 57.785156 146.105469 56.164062 146.105469 54.761719 146.039062 C 51.605469 145.910156 50.882812 145.582031 48.78125 143.394531 C 46.589844 141.117188 43.371094 136.765625 43.371094 136.066406 C 43.371094 135.738281 43.457031 135.761719 45.691406 136.285156 Z M 61.550781 138.253906 C 67.09375 140.441406 71.691406 141.207031 77.871094 140.945312 C 79.621094 140.878906 81.046875 140.878906 81.046875 140.921875 C 81.046875 140.988281 80.585938 141.335938 80.015625 141.6875 C 78.460938 142.671875 74.519531 144.222656 71.40625 145.078125 C 68.667969 145.820312 68.230469 145.929688 66.828125 146.039062 C 64.816406 146.214844 63.28125 145.667969 59.667969 143.566406 C 54.234375 140.398438 50.972656 137.992188 51.34375 137.378906 C 51.410156 137.269531 52.570312 137.179688 53.90625 137.160156 C 55.242188 137.160156 56.402344 137.09375 56.46875 137.027344 C 56.839844 136.65625 58.527344 137.070312 61.550781 138.253906 Z M 46.21875 145.886719 C 47.355469 146.238281 48.1875 146.761719 50.269531 148.421875 C 51.695312 149.5625 53.183594 150.785156 53.554688 151.136719 C 54.300781 151.859375 55.636719 152.820312 58.046875 154.417969 C 60.128906 155.773438 60.9375 156.40625 60.804688 156.539062 C 60.433594 156.910156 55.023438 156.558594 52.921875 156.035156 C 50.554688 155.421875 49.546875 154.679688 46.632812 151.332031 C 44.992188 149.472656 42.449219 145.710938 42.625 145.40625 C 42.824219 145.097656 44.445312 145.316406 46.21875 145.886719 Z M 66.917969 148.621094 C 74.714844 150.9375 75.285156 151.027344 81.660156 151.003906 C 84.683594 151.003906 87.179688 151.027344 87.179688 151.070312 C 87.179688 151.09375 86.761719 151.355469 86.257812 151.660156 C 84.617188 152.625 78.765625 154.699219 74.867188 155.730469 C 74.410156 155.859375 73.621094 156.058594 73.136719 156.210938 C 71.035156 156.824219 68.824219 156.449219 65.054688 154.808594 C 60.828125 152.996094 54.34375 148.859375 54.871094 148.3125 C 55.066406 148.140625 58.132812 147.941406 61.550781 147.898438 C 64.113281 147.855469 64.464844 147.898438 66.917969 148.621094 Z M 70.464844 159.863281 C 73.511719 160.890625 78.21875 161.589844 84.527344 161.960938 C 87.550781 162.136719 87.660156 162.3125 85.425781 163.339844 C 83.105469 164.414062 79.46875 165.617188 75.242188 166.6875 C 73.554688 167.125 71.078125 167.058594 69.546875 166.511719 C 65.667969 165.15625 58.746094 161.632812 57.652344 160.476562 L 57.148438 159.949219 L 60.828125 159.777344 C 62.84375 159.6875 65.097656 159.558594 65.820312 159.449219 C 68.054688 159.164062 68.472656 159.207031 70.464844 159.863281 Z M 70.464844 159.863281 "/>
</g>
</svg>
