<?xml version="1.0" encoding="UTF-8"?>
<svg xmlns="http://www.w3.org/2000/svg" xmlns:xlink="http://www.w3.org/1999/xlink" width="550px" height="347px" viewBox="0 0 549 347" version="1.1">
<g id="surface1">
<path style=" stroke:none;fill-rule:nonzero;fill:rgb(0%,0%,0%);fill-opacity:1;" d="M 184.109375 19.015625 C 158.375 21.710938 133.371094 33.59375 115.164062 51.832031 C 97.734375 69.335938 86.28125 92.554688 82.859375 117.28125 C 81.492188 127.152344 81.492188 139.359375 82.816406 148.542969 C 83.683594 154.257812 84.183594 156.773438 85.554688 162.121094 C 87.972656 171.351562 93.628906 185.566406 94.953125 185.566406 C 95.589844 185.566406 95.453125 184.972656 92.898438 177.566406 C 88.566406 164.816406 86.921875 153.527344 87.285156 138.945312 C 87.425781 133.78125 87.652344 129.164062 87.742188 128.664062 C 87.878906 128.160156 88.199219 126.195312 88.519531 124.320312 C 90.34375 112.941406 94.085938 101.605469 99.515625 90.953125 L 101.933594 86.15625 L 102.480469 94.15625 C 103.074219 102.5625 103.53125 106.039062 104.945312 112.484375 C 105.765625 116.320312 105.765625 116.550781 104.945312 121.394531 C 103.714844 128.570312 103.347656 133.597656 103.394531 141.917969 C 103.484375 150.097656 104.03125 155.355469 105.675781 163.261719 C 106.90625 169.203125 110.191406 179.898438 110.875 180.308594 C 111.152344 180.492188 111.242188 180.765625 111.105469 180.949219 C 111.015625 181.179688 112.519531 184.605469 114.480469 188.582031 C 120.320312 200.375 126.753906 209.289062 135.605469 217.789062 C 144.046875 225.878906 149.203125 229.855469 149.203125 228.164062 C 149.203125 227.980469 147.242188 226.0625 144.824219 223.960938 C 134.695312 215 125.160156 202.113281 119.273438 189.359375 C 114.890625 179.898438 111.289062 167.101562 109.964844 156.132812 C 109.234375 150.328125 109.371094 137.347656 110.191406 130.949219 C 111.515625 120.390625 115.121094 108.230469 119.730469 98.449219 C 122.738281 92.050781 123.058594 91.777344 122.832031 95.296875 C 122.601562 99 123.425781 110.472656 124.382812 116.09375 C 124.792969 118.46875 125.75 122.8125 126.527344 125.691406 C 127.714844 130.078125 127.988281 132.183594 128.261719 138.488281 C 128.625 147.585938 128.945312 150.601562 130.085938 156.542969 C 133.875 175.558594 142.816406 192.695312 155.910156 205.953125 C 160.703125 210.796875 161.339844 211.390625 165.722656 214.910156 C 171.289062 219.34375 183.5625 226.703125 185.386719 226.703125 C 186.757812 226.703125 186.210938 225.925781 184.019531 224.828125 C 180.140625 222.863281 171.425781 216.828125 166.910156 213.035156 C 162.484375 209.332031 157.417969 204.03125 153.722656 199.277344 C 152.625 197.90625 151.621094 196.671875 151.484375 196.535156 C 151.304688 196.398438 149.84375 194.160156 148.199219 191.507812 C 144.960938 186.296875 142.269531 181.085938 140.351562 176.425781 C 139.667969 174.78125 138.9375 173.042969 138.710938 172.539062 C 136.976562 168.792969 134.054688 155.902344 133.28125 148.589844 C 132.777344 144.203125 132.871094 143.015625 133.507812 144.980469 C 134.011719 146.578125 138.574219 154.761719 141.128906 158.601562 C 147.105469 167.558594 157.875 179.488281 157.875 177.066406 C 157.875 176.929688 156.367188 175.007812 154.542969 172.859375 C 152.71875 170.667969 150.617188 168.0625 149.890625 167.054688 C 149.160156 166.050781 148.382812 165.136719 148.246094 165 C 148.0625 164.863281 146.285156 161.9375 144.183594 158.460938 C 137.75 147.722656 132.960938 135.839844 133.144531 131.175781 C 133.554688 121.851562 137.113281 108.597656 141.949219 98.269531 C 144.046875 93.878906 148.15625 86.382812 148.519531 86.382812 C 148.613281 86.382812 148.566406 89.308594 148.429688 92.921875 C 148.109375 100.234375 148.792969 109.007812 150.164062 115.636719 C 150.617188 118.011719 151.167969 120.574219 151.304688 121.304688 C 151.441406 122.035156 151.761719 123.175781 152.035156 123.816406 C 152.308594 124.457031 152.671875 128.707031 152.902344 133.234375 C 153.675781 151.789062 158.96875 167.375 169.507812 182.136719 C 180.003906 196.808594 195.472656 208.144531 212.992188 213.902344 C 216.050781 214.910156 219.105469 215.730469 219.699219 215.730469 C 221.800781 215.730469 220.839844 214.957031 217.785156 214.132812 C 213.402344 212.988281 204.460938 209.058594 199.351562 206.042969 C 184.476562 197.265625 172.429688 184.242188 164.992188 168.882812 C 158.558594 155.675781 155.59375 141.824219 156.1875 127.75 C 156.777344 114.628906 159.289062 104.621094 165.175781 92.554688 C 177.675781 66.820312 201.859375 49.179688 230.878906 44.65625 C 233.253906 44.289062 238.5 43.921875 242.515625 43.921875 C 248.902344 43.878906 250.316406 44.015625 253.921875 44.976562 C 260.765625 46.847656 262.820312 47.808594 268.066406 51.738281 C 280.066406 60.789062 292.066406 74.546875 298.910156 87.160156 C 299.777344 88.761719 300.597656 90.039062 300.828125 90.039062 C 301.648438 90.039062 300.964844 88.03125 298.226562 82.40625 C 292.933594 71.53125 286.636719 62.480469 278.425781 53.886719 C 260.902344 35.558594 239.640625 24.40625 213.539062 19.835938 C 209.34375 19.105469 188.808594 18.554688 184.109375 19.015625 Z M 197.296875 31.082031 C 195.015625 33.367188 194.96875 33.410156 189.585938 34.507812 C 184.019531 35.652344 175.304688 38.074219 173.660156 38.941406 C 172.75 39.445312 177.402344 33.546875 179.457031 31.628906 C 180.917969 30.210938 188.398438 29.023438 196.429688 28.839844 L 199.625 28.792969 Z M 215.820312 29.984375 C 220.796875 30.667969 233.433594 33.640625 235.898438 34.691406 L 237.039062 35.195312 L 235.761719 34.964844 C 225.585938 32.953125 223.214844 32.726562 212.082031 32.679688 L 200.808594 32.679688 L 204.644531 28.75 L 207.609375 29.023438 C 209.25 29.160156 212.949219 29.617188 215.820312 29.984375 Z M 168.6875 36.246094 C 167.089844 38.347656 165.402344 40.722656 164.902344 41.546875 C 164.351562 42.507812 163.074219 43.558594 161.296875 44.425781 C 154.042969 48.128906 145.007812 54.390625 139.074219 59.875 C 136.109375 62.570312 136.019531 62.617188 136.519531 61.15625 C 137.339844 58.824219 142.863281 48.082031 144.777344 45.113281 C 146.421875 42.507812 146.742188 42.324219 152.171875 39.71875 C 156.324219 37.707031 170.148438 32.496094 171.472656 32.453125 C 171.515625 32.453125 170.285156 34.140625 168.6875 36.246094 Z M 231.109375 38.164062 C 239.503906 39.398438 239.230469 39.628906 229.511719 39.398438 C 222.347656 39.214844 218.742188 39.351562 213.996094 39.992188 C 207.699219 40.769531 197.9375 43.054688 193.507812 44.746094 C 192.140625 45.25 190.953125 45.613281 190.910156 45.570312 C 190.589844 45.25 194.96875 39.535156 195.699219 39.214844 C 196.429688 38.941406 202.226562 38.074219 208.292969 37.296875 C 211.578125 36.882812 226.453125 37.433594 231.109375 38.164062 Z M 189.359375 40.859375 C 189.359375 41 188.355469 42.6875 187.121094 44.609375 C 184.976562 47.945312 184.65625 48.21875 180.597656 50.367188 C 174.710938 53.476562 167.089844 58.6875 162.34375 62.800781 C 160.109375 64.71875 158.332031 66.226562 158.332031 66.183594 C 158.332031 65.542969 160.75 59.964844 162.894531 55.488281 L 165.585938 49.957031 L 170.96875 47.398438 C 173.933594 45.980469 179.136719 43.878906 182.511719 42.78125 C 188.671875 40.679688 189.359375 40.496094 189.359375 40.859375 Z M 236.308594 42.324219 C 236.398438 42.414062 235.351562 42.507812 233.980469 42.507812 C 230.378906 42.507812 221.070312 44.152344 215.640625 45.796875 C 210.027344 47.441406 201.222656 51.097656 201.222656 51.785156 C 201.222656 52.058594 201.085938 52.105469 200.902344 51.96875 C 200.308594 51.328125 189.949219 57.863281 184.929688 62.113281 L 181.644531 64.855469 L 182.511719 62.390625 C 182.96875 61.015625 184.15625 58.183594 185.160156 56.035156 C 186.894531 52.425781 187.121094 52.105469 189.449219 50.917969 C 198.253906 46.4375 214.316406 42.324219 224.125 42.09375 C 226.179688 42.050781 228.003906 41.914062 228.097656 41.773438 C 228.324219 41.59375 236.035156 42.09375 236.308594 42.324219 Z M 132.777344 51.832031 C 132.777344 51.921875 132.183594 53.339844 131.457031 54.984375 C 129.949219 58.367188 126.800781 67.964844 125.933594 71.757812 C 125.523438 73.539062 124.382812 75.734375 122.011719 79.34375 C 120.140625 82.132812 118.632812 84.648438 118.632812 84.921875 C 118.632812 85.242188 118.449219 85.46875 118.222656 85.46875 C 117.492188 85.46875 111.699219 97.855469 109.507812 104.117188 C 107.773438 109.007812 107.226562 110.195312 106.90625 109.464844 C 106.175781 107.636719 106.496094 88.351562 107.410156 82.5 C 107.867188 79.484375 108.277344 76.785156 108.320312 76.511719 C 108.457031 75.734375 114.390625 68.332031 118.222656 64.261719 C 120.09375 62.25 123.972656 58.59375 126.847656 56.128906 C 131.5 52.152344 132.777344 51.238281 132.777344 51.832031 Z M 155.136719 60.242188 C 154.132812 62.800781 152.71875 67.097656 151.941406 69.792969 C 150.984375 73.128906 150.117188 75.230469 149.203125 76.421875 C 148.429688 77.335938 147.835938 78.203125 147.835938 78.339844 C 147.835938 78.476562 147.378906 79.070312 146.785156 79.710938 C 146.238281 80.304688 145.464844 81.402344 145.097656 82.132812 C 144.734375 82.820312 144.183594 83.6875 143.867188 84.007812 C 142.863281 85.058594 138.390625 93.378906 136.519531 97.582031 C 134.285156 102.703125 132.550781 108.003906 130.953125 114.492188 L 129.722656 119.476562 L 129.449219 117.328125 C 127.941406 106.402344 128.078125 94.839844 129.859375 84.554688 C 130.589844 80.398438 130.679688 80.121094 133.371094 76.785156 C 137.570312 71.574219 146.191406 63.210938 151.714844 59.050781 C 154.453125 56.996094 156.734375 55.394531 156.824219 55.488281 C 156.914062 55.578125 156.140625 57.726562 155.136719 60.242188 Z M 179.820312 59.328125 C 179.089844 61.292969 178.042969 64.445312 177.539062 66.273438 C 176.808594 68.878906 176.125 70.160156 174.390625 72.167969 C 164.582031 83.597656 158.148438 96.347656 154.953125 110.5625 L 153.90625 115.316406 L 153.3125 110.335938 C 152.488281 103.570312 152.582031 91.914062 153.539062 85.699219 C 154.863281 76.96875 154.679688 77.289062 160.339844 71.574219 C 163.121094 68.742188 166.863281 65.269531 168.597656 63.898438 C 172.476562 60.789062 180.734375 55.210938 181.054688 55.488281 C 181.144531 55.625 180.597656 57.316406 179.820312 59.328125 Z M 179.820312 59.328125 "/>
<path style=" stroke:none;fill-rule:nonzero;fill:rgb(0%,0%,0%);fill-opacity:1;" d="M 197.796875 81.3125 C 184.839844 84.511719 176.628906 95.480469 177.632812 108.324219 C 178.132812 114.722656 180.503906 119.660156 185.25 124.046875 C 188.902344 127.429688 192.050781 129.210938 200.808594 133.050781 C 209.84375 136.980469 212.855469 138.71875 215.546875 141.734375 C 218.242188 144.75 219.199219 147.585938 218.925781 152.15625 C 218.378906 161.25 211.761719 167.328125 203.089844 166.734375 C 195.242188 166.140625 190.085938 160.703125 189.039062 151.789062 C 188.902344 150.464844 188.492188 149.277344 188.171875 149.140625 C 187.53125 148.910156 174.710938 151.652344 173.753906 152.246094 C 172.792969 152.839844 174.847656 160.886719 177.265625 165.777344 C 179.136719 169.570312 182.421875 173.683594 185.296875 175.738281 C 190.5 179.578125 194.832031 180.996094 202.132812 181.316406 C 208.660156 181.589844 212.808594 180.8125 217.921875 178.300781 C 228.917969 172.859375 235.078125 161.433594 234.253906 148.132812 C 233.753906 140.546875 231.519531 135.382812 226.589844 130.445312 C 222.847656 126.695312 218.421875 123.953125 211.121094 120.890625 C 198.894531 115.726562 195.746094 113.761719 193.875 110.105469 C 192.78125 107.910156 192.78125 104.574219 193.875 102.152344 C 195.015625 99.59375 198.527344 96.578125 201.359375 95.753906 C 204.1875 94.929688 208.613281 94.886719 210.894531 95.707031 C 212.628906 96.347656 216.6875 99.136719 216.734375 99.730469 C 216.734375 100.507812 219.609375 104.210938 220.15625 104.210938 C 221.25 104.210938 231.792969 97.628906 231.792969 96.941406 C 231.792969 95.664062 228.003906 90.496094 224.949219 87.574219 C 221.570312 84.417969 217.691406 82.269531 213.3125 81.128906 C 209.664062 80.214844 201.90625 80.257812 197.796875 81.3125 Z M 197.796875 81.3125 "/>
<path style=" stroke:none;fill-rule:nonzero;fill:rgb(0%,0%,0%);fill-opacity:1;" d="M 330.121094 81.355469 C 324.371094 82.589844 316.203125 85.882812 316.203125 86.980469 C 316.203125 87.253906 316.066406 87.34375 315.929688 87.160156 C 315.382812 86.613281 310.042969 90.679688 306.167969 94.566406 C 301.601562 99.136719 297.359375 105.261719 295.261719 110.335938 C 289.011719 125.324219 290.152344 144.066406 298.136719 157.457031 C 303.519531 166.507812 312.964844 174.871094 321.496094 178.160156 C 328.613281 180.90625 330.304688 181.179688 339.476562 181.179688 C 346.773438 181.179688 348.417969 181.042969 351.566406 180.171875 C 361.648438 177.386719 370.59375 170.804688 376.386719 161.980469 C 381.179688 154.667969 383.140625 147.492188 383.597656 135.609375 L 383.871094 128.433594 L 344.039062 128.433594 L 344.039062 143.058594 L 367.445312 143.058594 L 367.125 144.933594 C 366.441406 149.140625 363.703125 154.027344 359.734375 158.234375 C 357.316406 160.746094 357.042969 160.929688 353.664062 163.035156 C 347.777344 166.644531 339.613281 167.785156 332.949219 165.957031 C 322.957031 163.214844 314.105469 155.8125 309.816406 146.578125 C 305.753906 137.941406 305.4375 125.964844 309.039062 117.007812 C 313.328125 106.402344 322.730469 98.222656 333.40625 95.800781 C 345.40625 93.101562 357.40625 97.398438 365.894531 107.410156 C 367.261719 109.054688 368.675781 110.472656 369.042969 110.515625 C 369.726562 110.699219 379.628906 101.101562 379.628906 100.277344 C 379.628906 99.960938 377.847656 97.902344 375.65625 95.664062 C 367.261719 87.160156 360.007812 83.046875 349.832031 81.128906 C 344.722656 80.167969 335.324219 80.257812 330.121094 81.355469 Z M 330.121094 81.355469 "/>
<path style=" stroke:none;fill-rule:nonzero;fill:rgb(0%,0%,0%);fill-opacity:1;" d="M 238.179688 130.949219 L 238.179688 179.625 L 290.652344 179.625 L 290.652344 165 L 253.238281 165 L 253.238281 133.917969 L 289.738281 133.917969 L 289.738281 119.292969 L 253.238281 119.292969 L 253.238281 96.898438 L 290.652344 96.898438 L 290.652344 82.269531 L 238.179688 82.269531 Z M 238.179688 130.949219 "/>
<path style=" stroke:none;fill-rule:nonzero;fill:rgb(0%,0%,0%);fill-opacity:1;" d="M 412.480469 263.496094 C 408.328125 272.453125 404.90625 280.132812 404.816406 280.636719 C 404.675781 281.457031 404.90625 281.550781 407.597656 281.550781 L 410.519531 281.550781 L 412.25 277.664062 L 413.984375 273.777344 L 426.441406 273.777344 L 428.039062 277.527344 L 429.636719 281.320312 L 432.695312 281.457031 C 434.976562 281.550781 435.75 281.457031 435.75 281 C 435.703125 279.996094 420.96875 247.589844 420.464844 247.40625 C 420.238281 247.359375 416.632812 254.582031 412.480469 263.496094 Z M 422.425781 264.5 L 424.253906 268.75 L 420.417969 268.75 C 418.320312 268.75 416.585938 268.570312 416.585938 268.339844 C 416.585938 267.792969 420.238281 259.929688 420.417969 260.113281 C 420.511719 260.203125 421.378906 262.214844 422.425781 264.5 Z M 422.425781 264.5 "/>
<path style=" stroke:none;fill-rule:nonzero;fill:rgb(0%,0%,0%);fill-opacity:1;" d="M 500.085938 264.867188 L 500.085938 282.007812 L 505.5625 282.007812 L 505.652344 271.492188 L 505.789062 261.027344 L 516.648438 272.40625 C 522.671875 278.714844 527.738281 283.835938 527.964844 283.835938 C 528.195312 283.835938 528.375 276.660156 528.375 266.921875 L 528.375 250.011719 L 522.902344 250.011719 L 522.808594 260.203125 L 522.671875 270.398438 L 511.949219 259.105469 C 506.0625 252.890625 500.953125 247.773438 500.679688 247.773438 C 500.222656 247.726562 500.085938 251.429688 500.085938 264.867188 Z M 500.085938 264.867188 "/>
<path style=" stroke:none;fill-rule:nonzero;fill:rgb(0%,0%,0%);fill-opacity:1;" d="M 27.238281 249.328125 C 23.636719 250.605469 21.902344 253.164062 21.902344 257.324219 C 21.902344 261.804688 23.453125 263.769531 29.15625 266.695312 C 33.035156 268.613281 33.902344 269.621094 33.902344 271.949219 C 33.902344 274.328125 31.984375 276.519531 29.976562 276.519531 C 28.699219 276.519531 27.925781 275.882812 24.957031 272.40625 L 24.136719 271.449219 L 22.359375 272.910156 C 21.355469 273.734375 20.53125 274.691406 20.53125 275.011719 C 20.53125 277.253906 24.046875 280.773438 27.011719 281.59375 C 29.523438 282.28125 32.945312 281.824219 34.953125 280.636719 C 39.421875 277.847656 40.65625 269.300781 37.1875 265.140625 C 36.546875 264.410156 34.175781 262.855469 31.894531 261.667969 C 27.378906 259.335938 26.375 258.148438 27.285156 256.183594 C 28.378906 253.757812 31.164062 253.578125 33.671875 255.726562 C 34.449219 256.363281 35.226562 256.867188 35.453125 256.867188 C 35.679688 256.867188 36.546875 256.136719 37.414062 255.269531 L 38.964844 253.667969 L 37.371094 252.023438 C 34.449219 248.914062 30.9375 248 27.238281 249.328125 Z M 27.238281 249.328125 "/>
<path style=" stroke:none;fill-rule:nonzero;fill:rgb(0%,0%,0%);fill-opacity:1;" d="M 52.929688 249.328125 C 48.457031 250.605469 44.351562 253.941406 42.296875 258.054688 C 40.289062 261.941406 40.382812 269.027344 42.433594 273.046875 C 43.941406 275.925781 47.269531 279.035156 50.375 280.496094 C 52.835938 281.640625 53.703125 281.777344 57.492188 281.777344 C 61.1875 281.777344 62.191406 281.59375 64.425781 280.542969 C 67.984375 278.898438 70.90625 276.0625 72.59375 272.589844 C 73.871094 270.078125 74.054688 269.164062 74.101562 265.871094 C 74.101562 261.347656 73.234375 258.46875 70.816406 255.3125 C 68.898438 252.753906 65.523438 250.285156 63.058594 249.554688 C 60.046875 248.6875 55.621094 248.59375 52.929688 249.328125 Z M 61.871094 255.222656 C 68.761719 258.421875 70.585938 266.96875 65.613281 272.636719 C 63.332031 275.242188 60.640625 276.519531 57.492188 276.519531 C 51.605469 276.519531 46.539062 271.3125 46.539062 265.324219 C 46.539062 259.472656 51.742188 254.125 57.492188 254.125 C 58.679688 254.125 60.503906 254.582031 61.871094 255.222656 Z M 61.871094 255.222656 "/>
<path style=" stroke:none;fill-rule:nonzero;fill:rgb(0%,0%,0%);fill-opacity:1;" d="M 89.019531 249.097656 C 84.230469 250.101562 79.710938 253.621094 77.566406 258.011719 C 76.5625 260.019531 76.425781 260.890625 76.425781 265.550781 C 76.425781 270.351562 76.519531 270.992188 77.660156 273.09375 C 79.164062 276.0625 82.40625 278.988281 85.691406 280.542969 C 87.925781 281.59375 88.882812 281.777344 92.625 281.777344 C 96.414062 281.777344 97.324219 281.59375 99.699219 280.496094 C 102.800781 279.035156 106.769531 275.425781 106.769531 274.007812 C 106.769531 273.183594 103.804688 270.578125 102.890625 270.578125 C 102.710938 270.578125 101.707031 271.539062 100.703125 272.683594 C 99.652344 273.871094 98.007812 275.195312 96.960938 275.652344 C 90.527344 278.625 82.679688 273.917969 81.8125 266.558594 C 80.945312 258.925781 88.335938 252.527344 95.683594 254.628906 C 97.78125 255.175781 101.476562 258.238281 102.574219 260.25 C 102.984375 261.117188 103.074219 261.117188 104.078125 260.386719 C 107.316406 258.148438 107.410156 258.011719 106.816406 256.457031 C 105.996094 254.535156 102.617188 251.519531 99.742188 250.195312 C 97.050781 248.960938 92.125 248.457031 89.019531 249.097656 Z M 89.019531 249.097656 "/>
<path style=" stroke:none;fill-rule:nonzero;fill:rgb(0%,0%,0%);fill-opacity:1;" d="M 210.894531 249.328125 C 207.472656 250.285156 205.921875 251.199219 203.457031 253.667969 C 200.808594 256.320312 199.625 258.558594 198.941406 262.308594 C 197.570312 269.984375 201.222656 277.253906 208.15625 280.453125 C 210.710938 281.640625 211.53125 281.777344 215.367188 281.777344 C 219.0625 281.777344 220.066406 281.59375 222.300781 280.542969 C 225.859375 278.898438 228.78125 276.0625 230.46875 272.589844 C 231.746094 270.03125 231.929688 269.164062 231.929688 265.871094 C 231.972656 261.347656 231.0625 258.421875 228.6875 255.3125 C 226.773438 252.753906 223.394531 250.285156 220.933594 249.554688 C 217.964844 248.6875 213.496094 248.59375 210.894531 249.328125 Z M 219.472656 255.085938 C 222.210938 256.320312 223.945312 258.011719 225.222656 260.753906 C 227.136719 264.820312 226.5 269.207031 223.488281 272.636719 C 218.878906 277.847656 211.851562 277.847656 207.242188 272.636719 C 202.269531 266.96875 204.09375 258.421875 210.984375 255.222656 C 213.859375 253.898438 216.734375 253.851562 219.472656 255.085938 Z M 219.472656 255.085938 "/>
<path style=" stroke:none;fill-rule:nonzero;fill:rgb(0%,0%,0%);fill-opacity:1;" d="M 359.640625 249.328125 C 356.21875 250.285156 354.667969 251.199219 352.203125 253.667969 C 347.503906 258.375 346.183594 264.546875 348.417969 271.585938 C 349.195312 274.007812 352.386719 277.847656 355.035156 279.492188 C 361.195312 283.421875 370.183594 282.554688 375.613281 277.480469 C 380.8125 272.726562 382.273438 264.453125 379.082031 257.828125 C 377.574219 254.71875 373.789062 251.199219 370.640625 250.011719 C 367.214844 248.730469 362.746094 248.457031 359.640625 249.328125 Z M 368.21875 255.085938 C 373.648438 257.507812 376.207031 263.175781 374.515625 268.933594 C 373.789062 271.449219 369.910156 275.332031 367.492188 276.019531 C 362.925781 277.296875 359.050781 276.109375 355.902344 272.542969 C 350.972656 266.921875 352.890625 258.421875 359.734375 255.222656 C 362.609375 253.898438 365.484375 253.851562 368.21875 255.085938 Z M 368.21875 255.085938 "/>
<path style=" stroke:none;fill-rule:nonzero;fill:rgb(0%,0%,0%);fill-opacity:1;" d="M 478.230469 249.144531 C 473.027344 250.148438 467.871094 253.898438 465.726562 258.191406 C 464.449219 260.796875 464.3125 261.574219 464.3125 265.050781 C 464.3125 267.609375 464.585938 269.800781 465.089844 271.265625 C 466.046875 274.097656 469.378906 278.441406 471.75 279.902344 C 478.003906 283.878906 486.945312 283.011719 492.421875 277.9375 C 497.621094 273.183594 499.082031 264.867188 495.886719 258.285156 C 494.746094 255.90625 491.371094 252.296875 489.179688 251.199219 C 487.949219 250.515625 481.105469 248.59375 480.464844 248.6875 C 480.328125 248.730469 479.324219 248.914062 478.230469 249.144531 Z M 485.027344 255.542969 C 492.785156 259.0625 494.199219 268.84375 487.765625 274.375 C 483.113281 278.347656 476.953125 277.800781 472.710938 273.003906 C 467.78125 267.378906 469.699219 258.878906 476.542969 255.679688 C 479.417969 254.355469 482.292969 254.308594 485.027344 255.542969 Z M 485.027344 255.542969 "/>
<path style=" stroke:none;fill-rule:nonzero;fill:rgb(0%,0%,0%);fill-opacity:1;" d="M 110.875 265.550781 L 110.875 281.550781 L 116.808594 281.550781 L 116.808594 249.554688 L 110.875 249.554688 Z M 110.875 265.550781 "/>
<path style=" stroke:none;fill-rule:nonzero;fill:rgb(0%,0%,0%);fill-opacity:1;" d="M 120.914062 265.550781 L 120.914062 281.550781 L 138.710938 281.550781 L 138.710938 276.0625 L 126.390625 276.0625 L 126.390625 266.464844 L 138.710938 266.464844 L 138.710938 261.4375 L 126.390625 261.4375 L 126.390625 254.582031 L 138.710938 254.582031 L 138.710938 249.554688 L 120.914062 249.554688 Z M 120.914062 265.550781 "/>
<path style=" stroke:none;fill-rule:nonzero;fill:rgb(0%,0%,0%);fill-opacity:1;" d="M 140.992188 252.070312 L 140.992188 254.582031 L 147.835938 254.582031 L 147.835938 281.550781 L 153.765625 281.550781 L 153.765625 254.582031 L 160.613281 254.582031 L 160.613281 249.554688 L 140.992188 249.554688 Z M 140.992188 252.070312 "/>
<path style=" stroke:none;fill-rule:nonzero;fill:rgb(0%,0%,0%);fill-opacity:1;" d="M 161.980469 249.738281 C 161.980469 249.828125 164.351562 254.035156 167.226562 259.105469 L 172.476562 268.25 L 172.476562 281.550781 L 177.949219 281.550781 L 177.949219 267.835938 L 182.96875 259.152344 C 185.753906 254.398438 187.988281 250.285156 187.988281 250.011719 C 187.988281 249.738281 186.664062 249.554688 184.839844 249.554688 L 181.644531 249.554688 L 178.40625 255.3125 L 175.121094 261.074219 L 171.835938 255.3125 L 168.597656 249.554688 L 165.3125 249.554688 C 163.484375 249.554688 161.980469 249.644531 161.980469 249.738281 Z M 161.980469 249.738281 "/>
<path style=" stroke:none;fill-rule:nonzero;fill:rgb(0%,0%,0%);fill-opacity:1;" d="M 233.617188 265.550781 L 233.617188 281.550781 L 239.546875 281.550781 L 239.546875 266.464844 L 250.042969 266.464844 L 250.042969 261.4375 L 239.546875 261.4375 L 239.546875 254.582031 L 250.042969 254.582031 L 250.042969 249.554688 L 233.617188 249.554688 Z M 233.617188 265.550781 "/>
<path style=" stroke:none;fill-rule:nonzero;fill:rgb(0%,0%,0%);fill-opacity:1;" d="M 266.011719 265.550781 L 266.011719 281.550781 L 283.808594 281.550781 L 283.808594 276.0625 L 271.488281 276.0625 L 271.488281 266.464844 L 283.351562 266.464844 L 283.351562 261.4375 L 271.488281 261.4375 L 271.488281 254.582031 L 283.808594 254.582031 L 283.808594 249.554688 L 266.011719 249.554688 Z M 266.011719 265.550781 "/>
<path style=" stroke:none;fill-rule:nonzero;fill:rgb(0%,0%,0%);fill-opacity:1;" d="M 286.089844 249.738281 C 286.089844 249.828125 287.960938 253.164062 290.195312 257.097656 C 292.476562 261.027344 294.300781 264.453125 294.300781 264.730469 C 294.300781 264.957031 292.25 268.613281 289.738281 272.820312 C 287.230469 276.976562 285.175781 280.679688 285.175781 281 C 285.175781 281.457031 286 281.550781 288.234375 281.457031 L 291.292969 281.320312 L 294.484375 275.925781 C 296.265625 273.003906 297.816406 270.578125 297.953125 270.578125 C 298.089844 270.578125 299.59375 273.046875 301.285156 276.0625 L 304.433594 281.550781 L 307.351562 281.550781 C 309.679688 281.550781 310.273438 281.410156 310.273438 280.863281 C 310.273438 280.453125 308.3125 276.75 305.9375 272.636719 C 303.566406 268.523438 301.601562 264.957031 301.601562 264.683594 C 301.601562 264.410156 303.472656 261.164062 305.710938 257.417969 C 307.992188 253.714844 309.816406 250.378906 309.816406 250.101562 C 309.816406 249.738281 308.8125 249.554688 306.714844 249.554688 L 303.609375 249.554688 L 300.964844 254.125 C 299.503906 256.640625 298.179688 258.695312 298 258.695312 C 297.863281 258.695312 296.585938 256.640625 295.214844 254.125 L 292.707031 249.601562 L 289.421875 249.554688 C 287.59375 249.554688 286.089844 249.644531 286.089844 249.738281 Z M 286.089844 249.738281 "/>
<path style=" stroke:none;fill-rule:nonzero;fill:rgb(0%,0%,0%);fill-opacity:1;" d="M 312.097656 265.507812 L 312.097656 281.550781 L 317.574219 281.550781 L 317.574219 268.75 L 319.761719 268.75 C 326.378906 268.75 330.347656 265.1875 330.347656 259.199219 C 330.347656 255.449219 329.164062 252.84375 326.609375 251.109375 C 324.78125 249.828125 324.507812 249.785156 318.394531 249.644531 L 312.097656 249.464844 Z M 321.179688 254.855469 C 321.953125 255.039062 323.09375 255.632812 323.734375 256.226562 C 325.96875 258.285156 324.691406 262.398438 321.679688 262.992188 C 320.902344 263.128906 319.71875 263.402344 318.941406 263.539062 L 317.574219 263.816406 L 317.574219 259.199219 C 317.574219 254.078125 317.527344 254.125 321.179688 254.855469 Z M 321.179688 254.855469 "/>
<path style=" stroke:none;fill-rule:nonzero;fill:rgb(0%,0%,0%);fill-opacity:1;" d="M 333.542969 265.550781 L 333.542969 281.550781 L 348.144531 281.550781 L 348.144531 276.0625 L 339.019531 276.0625 L 339.019531 249.554688 L 333.542969 249.554688 Z M 333.542969 265.550781 "/>
<path style=" stroke:none;fill-rule:nonzero;fill:rgb(0%,0%,0%);fill-opacity:1;" d="M 383.277344 265.507812 L 383.277344 281.550781 L 388.707031 281.550781 L 388.84375 275.148438 L 388.980469 268.796875 L 393.316406 275.058594 L 397.695312 281.320312 L 400.980469 281.457031 C 403.492188 281.550781 404.265625 281.457031 404.265625 280.953125 C 404.265625 280.636719 402.257812 277.574219 399.796875 274.191406 L 395.324219 268.066406 L 397.101562 267.199219 C 398.0625 266.742188 399.382812 265.550781 400.070312 264.5 C 401.164062 262.855469 401.300781 262.214844 401.300781 258.925781 C 401.300781 255.726562 401.164062 254.992188 400.160156 253.53125 C 398.0625 250.46875 396.191406 249.828125 389.347656 249.644531 L 383.277344 249.464844 Z M 392.359375 255.039062 C 398.519531 256.777344 396.464844 263.722656 389.804688 263.722656 C 388.800781 263.722656 388.753906 263.585938 388.753906 259.152344 C 388.753906 254.035156 388.800781 253.988281 392.359375 255.039062 Z M 392.359375 255.039062 "/>
<path style=" stroke:none;fill-rule:nonzero;fill:rgb(0%,0%,0%);fill-opacity:1;" d="M 433.011719 252.070312 L 433.011719 254.582031 L 439.855469 254.582031 L 439.855469 281.550781 L 445.789062 281.550781 L 445.789062 254.535156 L 449.121094 254.628906 L 452.40625 254.71875 L 452.542969 252.160156 L 452.679688 249.554688 L 433.011719 249.554688 Z M 433.011719 252.070312 "/>
<path style=" stroke:none;fill-rule:nonzero;fill:rgb(0%,0%,0%);fill-opacity:1;" d="M 455.917969 265.644531 L 456.054688 281.777344 L 461.53125 281.777344 L 461.667969 265.644531 L 461.757812 249.554688 L 455.828125 249.554688 Z M 455.917969 265.644531 "/>
<path style=" stroke:none;fill-rule:nonzero;fill:rgb(0%,0%,0%);fill-opacity:1;" d="M 133.417969 293.433594 C 129.082031 294.300781 124.472656 297.820312 122.328125 301.84375 C 121.007812 304.449219 120.320312 308.285156 120.59375 311.625 C 121.371094 319.667969 127.667969 325.699219 135.746094 326.25 C 144.734375 326.796875 150.984375 321.265625 151.761719 312.035156 L 152.078125 308.515625 L 138.253906 308.515625 L 138.253906 314 L 141.902344 314 C 146.101562 314 146.285156 314.230469 144.230469 317.0625 C 140.71875 321.90625 133.964844 322.042969 129.492188 317.382812 C 126.390625 314.089844 125.476562 309.519531 127.074219 305.40625 C 128.03125 303.03125 131.636719 299.738281 134.054688 299.007812 C 138.027344 297.820312 140.992188 298.550781 144.324219 301.613281 C 145.417969 302.664062 146.511719 303.488281 146.785156 303.488281 C 147.015625 303.488281 147.972656 302.664062 148.976562 301.660156 L 150.757812 299.832031 L 149.386719 298.414062 C 145.1875 293.980469 139.578125 292.246094 133.417969 293.433594 Z M 133.417969 293.433594 "/>
<path style=" stroke:none;fill-rule:nonzero;fill:rgb(0%,0%,0%);fill-opacity:1;" d="M 189.8125 293.660156 C 184.792969 295.078125 180.277344 299.238281 178.636719 303.898438 C 177.632812 306.914062 177.722656 312.902344 178.910156 316.011719 C 180.1875 319.53125 183.289062 322.777344 186.984375 324.605469 C 189.769531 325.976562 190.363281 326.113281 194.375 326.113281 C 200.035156 326.113281 203.273438 324.742188 206.878906 320.808594 C 210.027344 317.429688 211.03125 314.6875 211.03125 309.429688 C 211.03125 305.957031 210.847656 305.179688 209.523438 302.527344 C 207.792969 298.964844 204.917969 296.082031 201.496094 294.53125 C 198.347656 293.066406 193.28125 292.703125 189.8125 293.660156 Z M 197.660156 299.007812 C 199.988281 299.695312 203.410156 302.757812 204.460938 305.085938 C 205.601562 307.511719 205.554688 311.804688 204.460938 314.230469 C 203.410156 316.515625 200.628906 319.210938 198.390625 320.171875 C 193.554688 322.179688 187.257812 319.667969 184.75 314.777344 C 181.921875 309.292969 184.109375 302.710938 189.769531 299.738281 C 192.414062 298.324219 194.742188 298.140625 197.660156 299.007812 Z M 197.660156 299.007812 "/>
<path style=" stroke:none;fill-rule:nonzero;fill:rgb(0%,0%,0%);fill-opacity:1;" d="M 296.355469 293.84375 C 292.476562 295.582031 290.605469 299.511719 291.519531 303.761719 C 292.203125 306.777344 293.9375 308.5625 298.453125 310.847656 C 302.46875 312.859375 303.429688 313.910156 303.429688 316.421875 C 303.429688 318.570312 301.421875 320.855469 299.59375 320.855469 C 298.316406 320.855469 295.398438 318.570312 294.988281 317.152344 C 294.578125 315.964844 293.617188 316.058594 291.746094 317.472656 C 289.875 318.890625 289.832031 319.484375 291.335938 322.042969 C 292.15625 323.414062 293.160156 324.285156 294.851562 325.152344 C 302.605469 329.039062 310.410156 322.5 308.539062 313.679688 C 307.808594 310.117188 306.441406 308.605469 301.601562 306 C 296.8125 303.441406 296.171875 302.757812 296.859375 300.882812 C 297.769531 298.1875 300.964844 297.773438 303.246094 300.058594 C 304.660156 301.523438 305.117188 301.476562 306.714844 299.96875 C 308.355469 298.367188 308.3125 297.59375 306.53125 295.808594 C 303.609375 293.019531 299.777344 292.246094 296.355469 293.84375 Z M 296.355469 293.84375 "/>
<path style=" stroke:none;fill-rule:nonzero;fill:rgb(0%,0%,0%);fill-opacity:1;" d="M 335.460938 293.660156 C 332.265625 294.574219 330.988281 295.261719 328.433594 297.546875 C 327.0625 298.6875 325.742188 300.5625 324.78125 302.4375 C 323.460938 305.132812 323.324219 305.863281 323.324219 309.382812 C 323.324219 314.6875 324.28125 317.429688 327.429688 320.808594 C 329.070312 322.640625 330.757812 323.871094 332.722656 324.785156 C 335.277344 325.976562 336.097656 326.113281 339.929688 326.113281 C 343.902344 326.113281 344.539062 325.976562 347.277344 324.648438 C 350.289062 323.140625 354.074219 319.667969 354.074219 318.386719 C 354.074219 317.792969 350.925781 314.914062 350.289062 314.914062 C 350.152344 314.914062 348.917969 316.011719 347.550781 317.382812 C 342.667969 322.273438 336.328125 322.089844 331.71875 316.878906 C 329.117188 313.910156 328.339844 310.207031 329.4375 306.183594 C 330.53125 302.300781 335.6875 298.460938 339.929688 298.460938 C 343.582031 298.460938 347.6875 301.066406 349.785156 304.675781 C 350.242188 305.5 350.425781 305.453125 352.386719 303.945312 C 353.574219 303.078125 354.53125 302.117188 354.53125 301.796875 C 354.578125 299.921875 348.78125 294.847656 345.496094 293.890625 C 342.53125 293.019531 338.058594 292.929688 335.460938 293.660156 Z M 335.460938 293.660156 "/>
<path style=" stroke:none;fill-rule:nonzero;fill:rgb(0%,0%,0%);fill-opacity:1;" d="M 375.429688 293.386719 C 370.59375 294.941406 368.265625 300.699219 370.457031 305.589844 C 371.414062 307.691406 372.464844 308.515625 377.253906 311.03125 C 381.726562 313.359375 382.820312 315.460938 381.226562 318.570312 C 379.445312 322.042969 375.886719 321.449219 373.195312 317.199219 C 372.507812 316.195312 372.328125 316.101562 371.367188 316.652344 C 370.777344 316.972656 369.773438 317.65625 369.179688 318.160156 L 368.082031 319.027344 L 369.222656 321.222656 C 372.738281 328.078125 382.957031 327.984375 386.0625 321.085938 C 387.066406 318.890625 387.203125 313.726562 386.289062 311.578125 C 385.46875 309.566406 382.777344 307.28125 379.398438 305.773438 C 374.835938 303.714844 373.742188 301.429688 376.34375 299.375 C 377.9375 298.09375 379.355469 298.230469 381.132812 299.832031 C 382 300.5625 382.914062 301.203125 383.09375 301.203125 C 383.324219 301.203125 384.234375 300.5625 385.101562 299.832031 C 386.65625 298.550781 386.699219 298.460938 386.015625 297.226562 C 384.828125 295.125 381.953125 293.433594 379.125 293.203125 C 377.800781 293.066406 376.113281 293.160156 375.429688 293.386719 Z M 375.429688 293.386719 "/>
<path style=" stroke:none;fill-rule:nonzero;fill:rgb(0%,0%,0%);fill-opacity:1;" d="M 416.449219 293.660156 C 412.890625 294.894531 411.019531 297.636719 411.019531 301.660156 C 411.019531 306.046875 412.570312 308.011719 418.320312 311.03125 C 422.382812 313.132812 423.660156 314.867188 422.929688 317.292969 C 422.382812 319.300781 420.785156 320.855469 419.277344 320.855469 C 417.863281 320.855469 414.988281 318.617188 414.535156 317.152344 C 414.121094 315.917969 412.980469 316.101562 411.15625 317.609375 C 409.285156 319.164062 409.421875 320.398438 411.703125 322.957031 C 415.492188 327.300781 421.832031 327.527344 425.621094 323.414062 C 429.132812 319.578125 429.453125 313.773438 426.351562 309.613281 C 425.710938 308.742188 423.660156 307.328125 421.148438 306 C 416.585938 303.671875 415.582031 302.480469 416.496094 300.515625 C 417.636719 298.003906 420.691406 297.910156 423.066406 300.289062 L 424.34375 301.613281 L 425.941406 300.195312 C 427.902344 298.507812 427.949219 297.636719 426.078125 295.808594 C 423.292969 293.113281 419.964844 292.382812 416.449219 293.660156 Z M 416.449219 293.660156 "/>
<path style=" stroke:none;fill-rule:nonzero;fill:rgb(0%,0%,0%);fill-opacity:1;" d="M 156.050781 309.886719 L 156.050781 325.882812 L 173.84375 325.882812 L 173.84375 320.398438 L 161.523438 320.398438 L 161.523438 310.800781 L 173.84375 310.800781 L 173.84375 305.773438 L 161.523438 305.773438 L 161.523438 298.917969 L 173.84375 298.917969 L 173.84375 293.890625 L 156.050781 293.890625 Z M 156.050781 309.886719 "/>
<path style=" stroke:none;fill-rule:nonzero;fill:rgb(0%,0%,0%);fill-opacity:1;" d="M 215.367188 309.886719 L 215.367188 325.882812 L 220.839844 325.882812 L 220.839844 313.085938 L 223.03125 313.085938 C 229.554688 313.085938 233.617188 309.382812 233.617188 303.441406 C 233.617188 300.105469 233.070312 298.644531 230.96875 296.496094 C 228.824219 294.300781 227.273438 293.890625 220.75 293.890625 L 215.367188 293.890625 Z M 224.445312 299.191406 C 226.453125 299.601562 228.140625 301.476562 228.140625 303.257812 C 228.140625 305.132812 226.679688 307.007812 224.949219 307.328125 C 224.171875 307.464844 222.984375 307.738281 222.210938 307.875 L 220.839844 308.148438 L 220.839844 303.535156 C 220.839844 298.414062 220.796875 298.460938 224.445312 299.191406 Z M 224.445312 299.191406 "/>
<path style=" stroke:none;fill-rule:nonzero;fill:rgb(0%,0%,0%);fill-opacity:1;" d="M 237.722656 309.886719 L 237.722656 325.882812 L 243.199219 325.882812 L 243.199219 311.257812 L 255.519531 311.257812 L 255.519531 325.882812 L 261.449219 325.882812 L 261.449219 293.890625 L 255.519531 293.890625 L 255.519531 305.773438 L 243.199219 305.773438 L 243.199219 293.890625 L 237.722656 293.890625 Z M 237.722656 309.886719 "/>
<path style=" stroke:none;fill-rule:nonzero;fill:rgb(0%,0%,0%);fill-opacity:1;" d="M 264.1875 294.390625 C 264.1875 294.667969 266.46875 298.824219 269.207031 303.625 L 274.226562 312.402344 L 274.226562 325.882812 L 279.703125 325.882812 L 279.703125 312.402344 L 284.722656 303.625 C 287.457031 298.824219 289.738281 294.667969 289.738281 294.390625 C 289.738281 294.074219 288.554688 293.890625 286.636719 293.890625 L 283.535156 293.890625 L 280.386719 299.375 C 278.652344 302.390625 277.101562 304.859375 276.917969 304.859375 C 276.734375 304.859375 275.230469 302.390625 273.496094 299.375 L 270.394531 293.890625 L 267.289062 293.890625 C 265.375 293.890625 264.1875 294.074219 264.1875 294.390625 Z M 264.1875 294.390625 "/>
<path style=" stroke:none;fill-rule:nonzero;fill:rgb(0%,0%,0%);fill-opacity:1;" d="M 312.554688 309.886719 L 312.554688 325.882812 L 318.03125 325.882812 L 318.03125 293.890625 L 312.554688 293.890625 Z M 312.554688 309.886719 "/>
<path style=" stroke:none;fill-rule:nonzero;fill:rgb(0%,0%,0%);fill-opacity:1;" d="M 359.09375 309.886719 L 359.09375 325.882812 L 364.570312 325.882812 L 364.570312 293.890625 L 359.09375 293.890625 Z M 359.09375 309.886719 "/>
<path style=" stroke:none;fill-rule:nonzero;fill:rgb(0%,0%,0%);fill-opacity:1;" d="M 389.210938 296.402344 L 389.210938 298.917969 L 396.054688 298.917969 L 396.054688 325.882812 L 401.984375 325.882812 L 401.984375 298.917969 L 408.828125 298.917969 L 408.828125 293.890625 L 389.210938 293.890625 Z M 389.210938 296.402344 "/>
<path style=" stroke:none;fill-rule:nonzero;fill:rgb(0%,0%,0%);fill-opacity:1;" d="M 20.988281 310.433594 L 20.988281 312.171875 L 107.683594 312.171875 L 107.683594 308.972656 L 64.335938 308.882812 L 20.988281 308.742188 Z M 20.988281 310.433594 "/>
<path style=" stroke:none;fill-rule:nonzero;fill:rgb(0%,0%,0%);fill-opacity:1;" d="M 440.3125 310.433594 L 440.3125 312.035156 L 454.777344 312.308594 C 462.71875 312.492188 482.429688 312.628906 498.582031 312.628906 L 527.917969 312.628906 L 527.917969 309.429688 L 511.859375 309.429688 C 503.007812 309.429688 483.296875 309.292969 468.054688 309.109375 L 440.3125 308.835938 Z M 440.3125 310.433594 "/>
</g>
</svg>
